<svg width="619" height="292" viewBox="0 0 619 292" fill="none" xmlns="http://www.w3.org/2000/svg">
<path d="M94.3489 291.921C90.0079 291.993 85.6667 291.795 81.3504 291.328L72.077 289.985C66.377 289.152 60.8735 287.305 55.8289 284.531C50.5739 282.021 46.4877 277.593 44.4156 272.163C42.1181 262.538 41.1054 252.652 41.4037 242.763V202.496C41.4037 188.35 38.2333 177.008 31.8926 168.75C24.997 161.36 14.8519 157.764 1.17963 157.764C0.442536 157.776 -0.289959 157.883 -1 158.08L-1 134.371H0.505926C14.5744 134.371 25.0367 130.775 31.6152 123.701C38.1937 116.628 41.4037 105.484 41.4037 89.599V50.083C40.9792 39.8717 42.0201 29.6524 44.4948 19.7347C46.5565 14.5388 50.5037 10.3067 55.5515 7.87989C60.7106 4.92074 66.3622 2.91285 72.2356 1.95249C80.7726 0.534632 89.4204 -0.113415 98.0741 0.0162091H104.058C104.71 0.0218147 105.36 0.0879604 106 0.213789V24.5952C104.856 24.3318 103.686 24.1993 102.513 24.2C89.7519 24.2 81.6278 26.9661 77.6252 32.6959C73.2659 37.0032 70.8485 46.2499 70.8485 60.3572V98.8062C70.8485 113.625 68.7085 124.057 64.4285 129.905C60.4656 135.121 52.5396 139.271 41.0867 142.076C40.1223 142.321 39.2673 142.88 38.6566 143.663C38.0459 144.447 37.7144 145.411 37.7144 146.403C37.7144 147.396 38.0459 148.36 38.6566 149.143C39.2673 149.927 40.1223 150.485 41.0867 150.73C52.3018 153.141 60.1089 157.211 64.3096 162.901C68.5104 168.591 70.7296 179.577 70.7296 194V232.331C70.7296 246.912 73.147 256.357 78.0215 261.257C82.8959 266.157 90.4256 267.816 102.394 267.816H106V292" fill="#00A5D7"/>
<path d="M523.722 291.921C528.059 291.994 532.398 291.796 536.711 291.327L545.977 289.982C551.669 289.179 557.169 287.356 562.213 284.6C567.482 282.111 571.573 277.668 573.618 272.215C575.914 262.577 576.926 252.678 576.628 242.775V202.374C576.628 188.208 579.835 176.852 586.132 168.582C593.022 161.182 603.279 157.581 616.862 157.581C617.583 157.581 618.302 157.674 619 157.858V134.156H617.495C603.477 134.156 593.022 130.555 586.409 123.472C579.796 116.389 576.628 105.231 576.628 89.3236V49.7538C577.072 39.528 576.032 29.2919 573.539 19.3642C571.509 14.1554 567.573 9.91212 562.53 7.49328C557.345 4.67357 551.7 2.79777 545.858 1.95351C537.353 0.540991 528.739 -0.107905 520.118 0.0145936H514.178C513.447 0.00456433 512.717 0.070874 512 0.212443V24.2313C513.142 23.963 514.312 23.8302 515.485 23.8356C528.197 23.8356 536.315 26.6055 540.314 32.3431C544.71 36.6562 547.086 45.9155 547.086 60.042V98.5433C547.086 113.382 549.264 123.828 553.501 129.685C557.461 134.908 565.381 139.063 576.826 141.872C577.803 142.12 578.668 142.686 579.286 143.482C579.903 144.278 580.236 145.258 580.231 146.265C580.21 147.269 579.85 148.237 579.211 149.012C578.571 149.787 577.689 150.325 576.707 150.538C565.5 152.952 557.699 157.027 553.501 162.726C549.304 168.424 547.086 179.424 547.086 193.867V232.25C547.086 246.851 544.71 256.308 539.839 261.215C534.968 266.121 527.405 267.783 515.485 267.783H512V292" fill="#00A5D7"/>
<path d="M257.397 177.161H193.811L225.485 80.652L257.397 177.161ZM335 253L252.092 35.0456H214.993C210.08 34.7307 205.2 36.0543 201.123 38.8084C197.045 41.5626 193.999 45.5911 192.465 50.2609L117 253H166.689L181.26 215.535H269.988L285.231 253H335Z" fill="#00A5D7"/>
<path d="M499 248.978H475.938C472.956 249.112 469.979 248.625 467.197 247.548C464.414 246.47 461.888 244.826 459.777 242.72C457.667 240.613 456.019 238.092 454.939 235.315C453.86 232.538 453.372 229.567 453.506 226.592V137.084C453.506 126.592 450.313 118.92 443.926 114.068C437.79 109.375 430.25 106.88 422.52 106.986C414.85 106.89 407.383 109.448 401.389 114.225C395.239 119.078 392.164 126.75 392.164 137.241V248.978H346V146.33C346 116.507 353.806 96.5468 369.417 86.4485C384.881 76.4328 402.76 70.7524 421.179 70.0028C440.069 69.8619 458.604 75.1179 474.597 85.1502C490.892 95.2222 499.026 115.615 499 146.33V248.978Z" fill="#00A5D7"/>
</svg>
