<svg width="86" height="41" viewBox="0 0 86 41" fill="none" xmlns="http://www.w3.org/2000/svg">
<path d="M13.0385 40.0813C12.4449 40.0911 11.8513 40.064 11.261 40L9.99296 39.8157C9.21351 39.7016 8.46093 39.4483 7.7711 39.0679C7.05251 38.7237 6.49373 38.1164 6.21038 37.3717C5.89621 36.0517 5.75773 34.6961 5.79852 33.3398V27.8177C5.79852 25.8776 5.36499 24.3223 4.49792 23.1897C3.55498 22.1763 2.16767 21.6832 0.298055 21.6832C0.19726 21.6849 0.097095 21.6994 0 21.7265L0 18.475H0.205929C2.12974 18.475 3.5604 17.9819 4.45998 17.0119C5.35957 16.0418 5.79852 14.5136 5.79852 12.3351V6.91593C5.74047 5.51557 5.8828 4.11409 6.22121 2.754C6.50315 2.04144 7.0429 1.46106 7.73317 1.12825C8.43865 0.722431 9.21149 0.447072 10.0146 0.31537C11.182 0.120926 12.3646 0.0320538 13.5479 0.0498303H14.3662C14.4554 0.0505991 14.5443 0.0596702 14.6318 0.0769262V3.42056C14.4754 3.38444 14.3154 3.36626 14.1549 3.36637C12.4099 3.36637 11.299 3.74571 10.7516 4.53149C10.1555 5.12218 9.82497 6.39027 9.82497 8.32491V13.5978C9.82497 15.63 9.53233 17.0606 8.94706 17.8627C8.40514 18.578 7.32131 19.147 5.75517 19.5318C5.62329 19.5654 5.50637 19.642 5.42286 19.7494C5.33936 19.8569 5.29403 19.9891 5.29403 20.1252C5.29403 20.2613 5.33936 20.3935 5.42286 20.5009C5.50637 20.6084 5.62329 20.685 5.75517 20.7186C7.28879 21.0491 8.35637 21.6073 8.9308 22.3877C9.50524 23.168 9.80871 24.6746 9.80871 26.6526V31.9092C9.80871 33.9088 10.1393 35.204 10.8058 35.876C11.4724 36.548 12.502 36.7756 14.1386 36.7756H14.6318V40.0921" fill="#00A5D7"/>
<path d="M72.346 40.0811C72.9396 40.0911 73.5333 40.0639 74.1235 39.9998L75.3916 39.8155C76.1705 39.7056 76.9232 39.4559 77.6135 39.0785C78.3344 38.7375 78.8943 38.1291 79.1742 37.3823C79.4884 36.0624 79.6268 34.7067 79.586 33.3505V27.8175C79.586 25.8774 80.025 24.3221 80.8866 23.1895C81.8296 22.1761 83.2332 21.683 85.0919 21.683C85.1907 21.6829 85.2891 21.6957 85.3846 21.7209V18.4748H85.1786C83.2602 18.4748 81.8296 17.9817 80.9246 17.0116C80.0196 16.0416 79.586 14.5134 79.586 12.3349V6.91571C79.6469 5.51527 79.5045 4.1134 79.1633 2.75378C78.8855 2.04043 78.347 1.45929 77.6568 1.12803C76.9473 0.741863 76.1748 0.484967 75.3753 0.369345C74.2115 0.175897 73.0326 0.0870288 71.8529 0.103805H71.04C70.94 0.102432 70.8401 0.111513 70.7419 0.130901V3.42034C70.8982 3.3836 71.0583 3.36541 71.2188 3.36615C72.9584 3.36615 74.0693 3.74549 74.6167 4.53127C75.2182 5.12196 75.5433 6.39005 75.5433 8.3247V13.5976C75.5433 15.6297 75.8414 17.0604 76.4212 17.8624C76.9632 18.5778 78.047 19.1468 79.6131 19.5316C79.7468 19.5654 79.8653 19.643 79.9498 19.752C80.0342 19.8611 80.0798 19.9952 80.0792 20.1331C80.0762 20.2706 80.027 20.4032 79.9395 20.5094C79.852 20.6155 79.7313 20.6892 79.5969 20.7184C78.0633 21.0489 76.9957 21.6071 76.4212 22.3875C75.8468 23.1678 75.5433 24.6743 75.5433 26.6523V31.909C75.5433 33.9086 75.2182 35.2038 74.5516 35.8758C73.8851 36.5478 72.85 36.7754 71.2188 36.7754H70.7419V40.0919" fill="#00A5D7"/>
<path d="M34.8995 23.84H26.1963L30.5316 10.6064L34.8995 23.84ZM45.5211 34.2394L34.1733 4.35268H29.0956C28.423 4.30951 27.7552 4.49101 27.1971 4.86866C26.6389 5.24632 26.2221 5.79873 26.0121 6.43907L15.6831 34.2394H22.4842L24.4784 29.1021H36.6228L38.7092 34.2394H45.5211Z" fill="#00A5D7"/>
<path d="M68.2274 34.2396H65.0572C64.6474 34.2581 64.2382 34.191 63.8557 34.0426C63.4732 33.8941 63.1259 33.6677 62.8358 33.3776C62.5457 33.0875 62.3192 32.7401 62.1708 32.3576C62.0223 31.9752 61.9552 31.566 61.9737 31.1561V18.8275C61.9737 17.3824 61.5348 16.3256 60.6569 15.6573C59.8134 15.0108 58.7768 14.6672 57.7142 14.6818C56.6599 14.6686 55.6335 15.0209 54.8096 15.6789C53.9642 16.3473 53.5415 17.404 53.5415 18.8492V34.2396H47.1956V20.101C47.1956 15.9932 48.2686 13.2439 50.4146 11.853C52.5403 10.4734 54.998 9.69104 57.53 9.58778C60.1266 9.56838 62.6745 10.2923 64.873 11.6742C67.1129 13.0615 68.2311 15.8704 68.2274 20.101V34.2396Z" fill="#00A5D7"/>
</svg>
