<svg width="245" height="64" viewBox="0 0 245 64" fill="none" xmlns="http://www.w3.org/2000/svg">
<path d="M176.96 50.624V59H175.28V53.552L173.036 59H171.764L169.508 53.552V59H167.828V50.624H169.736L172.4 56.852L175.064 50.624H176.96ZM179.149 55.652C179.149 54.98 179.281 54.384 179.545 53.864C179.817 53.344 180.181 52.944 180.637 52.664C181.101 52.384 181.617 52.244 182.185 52.244C182.681 52.244 183.113 52.344 183.481 52.544C183.857 52.744 184.157 52.996 184.381 53.3V52.352H186.073V59H184.381V58.028C184.165 58.34 183.865 58.6 183.481 58.808C183.105 59.008 182.669 59.108 182.173 59.108C181.613 59.108 181.101 58.964 180.637 58.676C180.181 58.388 179.817 57.984 179.545 57.464C179.281 56.936 179.149 56.332 179.149 55.652ZM184.381 55.676C184.381 55.268 184.301 54.92 184.141 54.632C183.981 54.336 183.765 54.112 183.493 53.96C183.221 53.8 182.929 53.72 182.617 53.72C182.305 53.72 182.017 53.796 181.753 53.948C181.489 54.1 181.273 54.324 181.105 54.62C180.945 54.908 180.865 55.252 180.865 55.652C180.865 56.052 180.945 56.404 181.105 56.708C181.273 57.004 181.489 57.232 181.753 57.392C182.025 57.552 182.313 57.632 182.617 57.632C182.929 57.632 183.221 57.556 183.493 57.404C183.765 57.244 183.981 57.02 184.141 56.732C184.301 56.436 184.381 56.084 184.381 55.676ZM192.346 59L190.978 56.936L189.766 59H187.966L190.138 55.664L187.942 52.352H189.838L191.194 54.404L192.418 52.352H194.218L192.034 55.664L194.242 59H192.346ZM196.966 51.56C196.67 51.56 196.422 51.468 196.222 51.284C196.03 51.092 195.934 50.856 195.934 50.576C195.934 50.296 196.03 50.064 196.222 49.88C196.422 49.688 196.67 49.592 196.966 49.592C197.262 49.592 197.506 49.688 197.698 49.88C197.898 50.064 197.998 50.296 197.998 50.576C197.998 50.856 197.898 51.092 197.698 51.284C197.506 51.468 197.262 51.56 196.966 51.56ZM197.794 52.352V59H196.114V52.352H197.794ZM208.67 52.256C209.486 52.256 210.142 52.508 210.638 53.012C211.142 53.508 211.394 54.204 211.394 55.1V59H209.714V55.328C209.714 54.808 209.582 54.412 209.318 54.14C209.054 53.86 208.694 53.72 208.238 53.72C207.782 53.72 207.418 53.86 207.146 54.14C206.882 54.412 206.75 54.808 206.75 55.328V59H205.07V55.328C205.07 54.808 204.938 54.412 204.674 54.14C204.41 53.86 204.05 53.72 203.594 53.72C203.13 53.72 202.762 53.86 202.49 54.14C202.226 54.412 202.094 54.808 202.094 55.328V59H200.414V52.352H202.094V53.156C202.31 52.876 202.586 52.656 202.922 52.496C203.266 52.336 203.642 52.256 204.05 52.256C204.57 52.256 205.034 52.368 205.442 52.592C205.85 52.808 206.166 53.12 206.39 53.528C206.606 53.144 206.918 52.836 207.326 52.604C207.742 52.372 208.19 52.256 208.67 52.256ZM214.8 51.56C214.504 51.56 214.256 51.468 214.056 51.284C213.864 51.092 213.768 50.856 213.768 50.576C213.768 50.296 213.864 50.064 214.056 49.88C214.256 49.688 214.504 49.592 214.8 49.592C215.096 49.592 215.34 49.688 215.532 49.88C215.732 50.064 215.832 50.296 215.832 50.576C215.832 50.856 215.732 51.092 215.532 51.284C215.34 51.468 215.096 51.56 214.8 51.56ZM215.628 52.352V59H213.948V52.352H215.628ZM220.792 59.108C220.248 59.108 219.76 59.012 219.328 58.82C218.896 58.62 218.552 58.352 218.296 58.016C218.048 57.68 217.912 57.308 217.888 56.9H219.58C219.612 57.156 219.736 57.368 219.952 57.536C220.176 57.704 220.452 57.788 220.78 57.788C221.1 57.788 221.348 57.724 221.524 57.596C221.708 57.468 221.8 57.304 221.8 57.104C221.8 56.888 221.688 56.728 221.464 56.624C221.248 56.512 220.9 56.392 220.42 56.264C219.924 56.144 219.516 56.02 219.196 55.892C218.884 55.764 218.612 55.568 218.38 55.304C218.156 55.04 218.044 54.684 218.044 54.236C218.044 53.868 218.148 53.532 218.356 53.228C218.572 52.924 218.876 52.684 219.268 52.508C219.668 52.332 220.136 52.244 220.672 52.244C221.464 52.244 222.096 52.444 222.568 52.844C223.04 53.236 223.3 53.768 223.348 54.44H221.74C221.716 54.176 221.604 53.968 221.404 53.816C221.212 53.656 220.952 53.576 220.624 53.576C220.32 53.576 220.084 53.632 219.916 53.744C219.756 53.856 219.676 54.012 219.676 54.212C219.676 54.436 219.788 54.608 220.012 54.728C220.236 54.84 220.584 54.956 221.056 55.076C221.536 55.196 221.932 55.32 222.244 55.448C222.556 55.576 222.824 55.776 223.048 56.048C223.28 56.312 223.4 56.664 223.408 57.104C223.408 57.488 223.3 57.832 223.084 58.136C222.876 58.44 222.572 58.68 222.172 58.856C221.78 59.024 221.32 59.108 220.792 59.108ZM231.927 55.532C231.927 55.772 231.911 55.988 231.879 56.18H227.019C227.059 56.66 227.227 57.036 227.523 57.308C227.819 57.58 228.183 57.716 228.615 57.716C229.239 57.716 229.683 57.448 229.947 56.912H231.759C231.567 57.552 231.199 58.08 230.655 58.496C230.111 58.904 229.443 59.108 228.651 59.108C228.011 59.108 227.435 58.968 226.923 58.688C226.419 58.4 226.023 57.996 225.735 57.476C225.455 56.956 225.315 56.356 225.315 55.676C225.315 54.988 225.455 54.384 225.735 53.864C226.015 53.344 226.407 52.944 226.911 52.664C227.415 52.384 227.995 52.244 228.651 52.244C229.283 52.244 229.847 52.38 230.343 52.652C230.847 52.924 231.235 53.312 231.507 53.816C231.787 54.312 231.927 54.884 231.927 55.532ZM230.187 55.052C230.179 54.62 230.023 54.276 229.719 54.02C229.415 53.756 229.043 53.624 228.603 53.624C228.187 53.624 227.835 53.752 227.547 54.008C227.267 54.256 227.095 54.604 227.031 55.052H230.187Z" fill="#4C525E"/>
<path d="M78.508 50.624V59H76.828V50.624H78.508ZM89.3838 52.256C90.1998 52.256 90.8558 52.508 91.3518 53.012C91.8558 53.508 92.1078 54.204 92.1078 55.1V59H90.4278V55.328C90.4278 54.808 90.2958 54.412 90.0318 54.14C89.7678 53.86 89.4078 53.72 88.9518 53.72C88.4958 53.72 88.1318 53.86 87.8598 54.14C87.5958 54.412 87.4638 54.808 87.4638 55.328V59H85.7838V55.328C85.7838 54.808 85.6518 54.412 85.3878 54.14C85.1238 53.86 84.7638 53.72 84.3078 53.72C83.8438 53.72 83.4758 53.86 83.2038 54.14C82.9398 54.412 82.8078 54.808 82.8078 55.328V59H81.1278V52.352H82.8078V53.156C83.0238 52.876 83.2998 52.656 83.6358 52.496C83.9798 52.336 84.3558 52.256 84.7638 52.256C85.2838 52.256 85.7478 52.368 86.1558 52.592C86.5638 52.808 86.8798 53.12 87.1038 53.528C87.3198 53.144 87.6318 52.836 88.0398 52.604C88.4558 52.372 88.9038 52.256 89.3838 52.256ZM96.3421 53.312C96.5581 53.008 96.8541 52.756 97.2301 52.556C97.6141 52.348 98.0501 52.244 98.5381 52.244C99.1061 52.244 99.6181 52.384 100.074 52.664C100.538 52.944 100.902 53.344 101.166 53.864C101.438 54.376 101.574 54.972 101.574 55.652C101.574 56.332 101.438 56.936 101.166 57.464C100.902 57.984 100.538 58.388 100.074 58.676C99.6181 58.964 99.1061 59.108 98.5381 59.108C98.0501 59.108 97.6181 59.008 97.2421 58.808C96.8741 58.608 96.5741 58.356 96.3421 58.052V62.168H94.6621V52.352H96.3421V53.312ZM99.8581 55.652C99.8581 55.252 99.7741 54.908 99.6061 54.62C99.4461 54.324 99.2301 54.1 98.9581 53.948C98.6941 53.796 98.4061 53.72 98.0941 53.72C97.7901 53.72 97.5021 53.8 97.2301 53.96C96.9661 54.112 96.7501 54.336 96.5821 54.632C96.4221 54.928 96.3421 55.276 96.3421 55.676C96.3421 56.076 96.4221 56.424 96.5821 56.72C96.7501 57.016 96.9661 57.244 97.2301 57.404C97.5021 57.556 97.7901 57.632 98.0941 57.632C98.4061 57.632 98.6941 57.552 98.9581 57.392C99.2301 57.232 99.4461 57.004 99.6061 56.708C99.7741 56.412 99.8581 56.06 99.8581 55.652ZM105.435 50.12V59H103.755V50.12H105.435ZM114.235 55.532C114.235 55.772 114.219 55.988 114.187 56.18H109.327C109.367 56.66 109.535 57.036 109.831 57.308C110.127 57.58 110.491 57.716 110.923 57.716C111.547 57.716 111.991 57.448 112.255 56.912H114.067C113.875 57.552 113.507 58.08 112.963 58.496C112.419 58.904 111.751 59.108 110.959 59.108C110.319 59.108 109.743 58.968 109.231 58.688C108.727 58.4 108.331 57.996 108.043 57.476C107.763 56.956 107.623 56.356 107.623 55.676C107.623 54.988 107.763 54.384 108.043 53.864C108.323 53.344 108.715 52.944 109.219 52.664C109.723 52.384 110.303 52.244 110.959 52.244C111.591 52.244 112.155 52.38 112.651 52.652C113.155 52.924 113.543 53.312 113.815 53.816C114.095 54.312 114.235 54.884 114.235 55.532ZM112.495 55.052C112.487 54.62 112.331 54.276 112.027 54.02C111.723 53.756 111.351 53.624 110.911 53.624C110.495 53.624 110.143 53.752 109.855 54.008C109.575 54.256 109.403 54.604 109.339 55.052H112.495ZM124.677 52.256C125.493 52.256 126.149 52.508 126.645 53.012C127.149 53.508 127.401 54.204 127.401 55.1V59H125.721V55.328C125.721 54.808 125.589 54.412 125.325 54.14C125.061 53.86 124.701 53.72 124.245 53.72C123.789 53.72 123.425 53.86 123.153 54.14C122.889 54.412 122.757 54.808 122.757 55.328V59H121.077V55.328C121.077 54.808 120.945 54.412 120.681 54.14C120.417 53.86 120.057 53.72 119.601 53.72C119.137 53.72 118.769 53.86 118.497 54.14C118.233 54.412 118.101 54.808 118.101 55.328V59H116.421V52.352H118.101V53.156C118.317 52.876 118.593 52.656 118.929 52.496C119.273 52.336 119.649 52.256 120.057 52.256C120.577 52.256 121.041 52.368 121.449 52.592C121.857 52.808 122.173 53.12 122.397 53.528C122.613 53.144 122.925 52.836 123.333 52.604C123.749 52.372 124.197 52.256 124.677 52.256ZM136.135 55.532C136.135 55.772 136.119 55.988 136.087 56.18H131.227C131.267 56.66 131.435 57.036 131.731 57.308C132.027 57.58 132.391 57.716 132.823 57.716C133.447 57.716 133.891 57.448 134.155 56.912H135.967C135.775 57.552 135.407 58.08 134.863 58.496C134.319 58.904 133.651 59.108 132.859 59.108C132.219 59.108 131.643 58.968 131.131 58.688C130.627 58.4 130.231 57.996 129.943 57.476C129.663 56.956 129.523 56.356 129.523 55.676C129.523 54.988 129.663 54.384 129.943 53.864C130.223 53.344 130.615 52.944 131.119 52.664C131.623 52.384 132.203 52.244 132.859 52.244C133.491 52.244 134.055 52.38 134.551 52.652C135.055 52.924 135.443 53.312 135.715 53.816C135.995 54.312 136.135 54.884 136.135 55.532ZM134.395 55.052C134.387 54.62 134.231 54.276 133.927 54.02C133.623 53.756 133.251 53.624 132.811 53.624C132.395 53.624 132.043 53.752 131.755 54.008C131.475 54.256 131.303 54.604 131.239 55.052H134.395ZM142.005 52.256C142.797 52.256 143.437 52.508 143.925 53.012C144.413 53.508 144.657 54.204 144.657 55.1V59H142.977V55.328C142.977 54.8 142.845 54.396 142.581 54.116C142.317 53.828 141.957 53.684 141.501 53.684C141.037 53.684 140.669 53.828 140.397 54.116C140.133 54.396 140.001 54.8 140.001 55.328V59H138.321V52.352H140.001V53.18C140.225 52.892 140.509 52.668 140.853 52.508C141.205 52.34 141.589 52.256 142.005 52.256ZM149.171 53.732V56.948C149.171 57.172 149.223 57.336 149.327 57.44C149.439 57.536 149.623 57.584 149.879 57.584H150.659V59H149.603C148.187 59 147.479 58.312 147.479 56.936V53.732H146.687V52.352H147.479V50.708H149.171V52.352H150.659V53.732H149.171Z" fill="#4C525E"/>
<path d="M11.964 57.404H8.628L8.076 59H6.312L9.324 50.612H11.28L14.292 59H12.516L11.964 57.404ZM11.508 56.06L10.296 52.556L9.084 56.06H11.508ZM20.0618 52.256C20.8538 52.256 21.4938 52.508 21.9818 53.012C22.4698 53.508 22.7138 54.204 22.7138 55.1V59H21.0338V55.328C21.0338 54.8 20.9018 54.396 20.6378 54.116C20.3738 53.828 20.0138 53.684 19.5578 53.684C19.0938 53.684 18.7258 53.828 18.4538 54.116C18.1898 54.396 18.0578 54.8 18.0578 55.328V59H16.3778V52.352H18.0578V53.18C18.2818 52.892 18.5658 52.668 18.9098 52.508C19.2618 52.34 19.6458 52.256 20.0618 52.256ZM24.8394 55.652C24.8394 54.98 24.9714 54.384 25.2354 53.864C25.5074 53.344 25.8714 52.944 26.3274 52.664C26.7914 52.384 27.3074 52.244 27.8754 52.244C28.3714 52.244 28.8034 52.344 29.1714 52.544C29.5474 52.744 29.8474 52.996 30.0714 53.3V52.352H31.7634V59H30.0714V58.028C29.8554 58.34 29.5554 58.6 29.1714 58.808C28.7954 59.008 28.3594 59.108 27.8634 59.108C27.3034 59.108 26.7914 58.964 26.3274 58.676C25.8714 58.388 25.5074 57.984 25.2354 57.464C24.9714 56.936 24.8394 56.332 24.8394 55.652ZM30.0714 55.676C30.0714 55.268 29.9914 54.92 29.8314 54.632C29.6714 54.336 29.4554 54.112 29.1834 53.96C28.9114 53.8 28.6194 53.72 28.3074 53.72C27.9954 53.72 27.7074 53.796 27.4434 53.948C27.1794 54.1 26.9634 54.324 26.7954 54.62C26.6354 54.908 26.5554 55.252 26.5554 55.652C26.5554 56.052 26.6354 56.404 26.7954 56.708C26.9634 57.004 27.1794 57.232 27.4434 57.392C27.7154 57.552 28.0034 57.632 28.3074 57.632C28.6194 57.632 28.9114 57.556 29.1834 57.404C29.4554 57.244 29.6714 57.02 29.8314 56.732C29.9914 56.436 30.0714 56.084 30.0714 55.676ZM36.0442 50.12V59H34.3642V50.12H36.0442ZM45.0241 52.352L40.9081 62.144H39.1201L40.5601 58.832L37.8961 52.352H39.7801L41.4961 56.996L43.2361 52.352H45.0241ZM49.4337 59.108C48.8897 59.108 48.4017 59.012 47.9697 58.82C47.5377 58.62 47.1937 58.352 46.9377 58.016C46.6897 57.68 46.5537 57.308 46.5297 56.9H48.2217C48.2537 57.156 48.3777 57.368 48.5937 57.536C48.8177 57.704 49.0937 57.788 49.4217 57.788C49.7417 57.788 49.9897 57.724 50.1657 57.596C50.3497 57.468 50.4417 57.304 50.4417 57.104C50.4417 56.888 50.3297 56.728 50.1057 56.624C49.8897 56.512 49.5417 56.392 49.0617 56.264C48.5657 56.144 48.1577 56.02 47.8377 55.892C47.5257 55.764 47.2537 55.568 47.0217 55.304C46.7977 55.04 46.6857 54.684 46.6857 54.236C46.6857 53.868 46.7897 53.532 46.9977 53.228C47.2137 52.924 47.5177 52.684 47.9097 52.508C48.3097 52.332 48.7777 52.244 49.3137 52.244C50.1057 52.244 50.7377 52.444 51.2097 52.844C51.6817 53.236 51.9417 53.768 51.9897 54.44H50.3817C50.3577 54.176 50.2457 53.968 50.0457 53.816C49.8537 53.656 49.5937 53.576 49.2657 53.576C48.9617 53.576 48.7257 53.632 48.5577 53.744C48.3977 53.856 48.3177 54.012 48.3177 54.212C48.3177 54.436 48.4297 54.608 48.6537 54.728C48.8777 54.84 49.2257 54.956 49.6977 55.076C50.1777 55.196 50.5737 55.32 50.8857 55.448C51.1977 55.576 51.4657 55.776 51.6897 56.048C51.9217 56.312 52.0417 56.664 52.0497 57.104C52.0497 57.488 51.9417 57.832 51.7257 58.136C51.5177 58.44 51.2137 58.68 50.8137 58.856C50.4217 59.024 49.9617 59.108 49.4337 59.108ZM60.5688 55.532C60.5688 55.772 60.5528 55.988 60.5208 56.18H55.6608C55.7008 56.66 55.8688 57.036 56.1648 57.308C56.4608 57.58 56.8248 57.716 57.2568 57.716C57.8808 57.716 58.3248 57.448 58.5888 56.912H60.4008C60.2088 57.552 59.8408 58.08 59.2968 58.496C58.7528 58.904 58.0848 59.108 57.2928 59.108C56.6528 59.108 56.0768 58.968 55.5648 58.688C55.0608 58.4 54.6648 57.996 54.3768 57.476C54.0968 56.956 53.9568 56.356 53.9568 55.676C53.9568 54.988 54.0968 54.384 54.3768 53.864C54.6568 53.344 55.0488 52.944 55.5528 52.664C56.0568 52.384 56.6368 52.244 57.2928 52.244C57.9248 52.244 58.4888 52.38 58.9848 52.652C59.4888 52.924 59.8768 53.312 60.1488 53.816C60.4288 54.312 60.5688 54.884 60.5688 55.532ZM58.8288 55.052C58.8208 54.62 58.6648 54.276 58.3608 54.02C58.0568 53.756 57.6848 53.624 57.2448 53.624C56.8288 53.624 56.4768 53.752 56.1888 54.008C55.9088 54.256 55.7368 54.604 55.6728 55.052H58.8288Z" fill="#4C525E"/>
<path d="M70.92 55.05H69.03V56.99H67.71V55.05H65.82V53.83H67.71V51.89H69.03V53.83H70.92V55.05Z" fill="#4C525E"/>
<path d="M161.92 55.05H160.03V56.99H158.71V55.05H156.82V53.83H158.71V51.89H160.03V53.83H161.92V55.05Z" fill="#4C525E"/>
<path d="M13.6905 42.0354C13.0672 42.0457 12.4438 42.0172 11.8241 41.95L10.4926 41.7565C9.67419 41.6367 8.88397 41.3707 8.15965 40.9713C7.40513 40.6099 6.81842 39.9722 6.5209 39.1903C6.19102 37.8043 6.04562 36.3809 6.08844 34.9568V29.1586C6.08844 27.1215 5.63323 25.4885 4.72281 24.2992C3.73273 23.2352 2.27605 22.7174 0.312957 22.7174C0.207123 22.7191 0.10195 22.7344 0 22.7629L0 19.3488H0.216225C2.23622 19.3488 3.73842 18.831 4.68298 17.8125C5.62754 16.7939 6.08844 15.1893 6.08844 12.9019V7.21174C6.02749 5.74136 6.17694 4.26981 6.53228 2.84171C6.8283 2.09352 7.39504 1.48412 8.11982 1.13467C8.86058 0.708565 9.67206 0.419438 10.5154 0.281151C11.7411 0.0769848 12.9828 -0.0163313 14.2253 0.00233404H15.0845C15.1782 0.00314123 15.2715 0.0126659 15.3634 0.0307847V3.5416C15.1992 3.50368 15.0312 3.48459 14.8626 3.4847C13.0304 3.4847 11.8639 3.88301 11.2892 4.70808C10.6633 5.3283 10.3162 6.65979 10.3162 8.69117V14.2277C10.3162 16.3615 10.0089 17.8637 9.39441 18.7058C8.8254 19.4569 7.68737 20.0544 6.04292 20.4584C5.90446 20.4937 5.78169 20.5741 5.69401 20.6869C5.60633 20.7997 5.55873 20.9385 5.55873 21.0814C5.55873 21.2243 5.60633 21.3632 5.69401 21.476C5.78169 21.5888 5.90446 21.6692 6.04292 21.7045C7.65323 22.0516 8.77419 22.6377 9.37734 23.4571C9.9805 24.2765 10.2991 25.8583 10.2991 27.9352V33.4546C10.2991 35.5543 10.6462 36.9142 11.3461 37.6198C12.046 38.3254 13.1271 38.5644 14.8456 38.5644H15.3634V42.0467" fill="#00A5D7"/>
<path d="M75.9633 42.0351C76.5866 42.0456 77.2099 42.0171 77.8297 41.9498L79.1612 41.7563C79.979 41.6408 80.7694 41.3787 81.4941 40.9824C82.2511 40.6244 82.839 39.9856 83.1329 39.2014C83.4628 37.8155 83.6082 36.392 83.5653 34.968V29.1583C83.5653 27.1213 84.0262 25.4882 84.931 24.299C85.921 23.2349 87.3948 22.7171 89.3465 22.7171C89.4502 22.7171 89.5535 22.7304 89.6538 22.7569V19.3485H89.4375C87.4232 19.3485 85.921 18.8307 84.9708 17.8122C84.0205 16.7937 83.5653 15.1891 83.5653 12.9016V7.21148C83.6292 5.74102 83.4797 4.26905 83.1215 2.84146C82.8298 2.09244 82.2643 1.48225 81.5396 1.13442C80.7947 0.728944 79.9835 0.459203 79.1441 0.3378C77.922 0.134679 76.6842 0.041368 75.4455 0.0589833H74.592C74.487 0.0575411 74.3821 0.0670764 74.279 0.087434V3.54135C74.4431 3.50277 74.6112 3.48367 74.7798 3.48444C76.6063 3.48444 77.7728 3.88275 78.3475 4.70782C78.9791 5.32805 79.3205 6.65954 79.3205 8.69092V14.2274C79.3205 16.3612 79.6334 17.8634 80.2423 18.7056C80.8113 19.4567 81.9493 20.0541 83.5938 20.4581C83.7341 20.4937 83.8586 20.5752 83.9472 20.6896C84.0359 20.8041 84.0838 20.9449 84.0831 21.0897C84.08 21.2342 84.0284 21.3733 83.9365 21.4848C83.8446 21.5963 83.7179 21.6736 83.5767 21.7043C81.9664 22.0514 80.8454 22.6374 80.2423 23.4568C79.6391 24.2762 79.3205 25.8581 79.3205 27.935V33.4544C79.3205 35.554 78.9791 36.914 78.2792 37.6196C77.5793 38.3251 76.4925 38.5641 74.7798 38.5641H74.279V42.0465" fill="#00A5D7"/>
<path d="M36.6445 24.982H27.5061L32.0582 11.0866L36.6445 24.982ZM47.7971 35.9013L35.882 4.52023H30.5503C29.8442 4.4749 29.143 4.66547 28.5569 5.06201C27.9709 5.45855 27.5332 6.03858 27.3127 6.71094L16.4673 35.9013H23.6084L25.7023 30.5071H38.4539L40.6446 35.9013H47.7971Z" fill="#00A5D7"/>
<path d="M71.6388 35.9017H68.3101C67.8797 35.9211 67.4501 35.8506 67.0485 35.6948C66.6469 35.5389 66.2821 35.3011 65.9775 34.9965C65.6729 34.6919 65.4351 34.3272 65.2793 33.9256C65.1234 33.524 65.053 33.0943 65.0724 32.664V19.7189C65.0724 18.2016 64.6115 17.092 63.6897 16.3902C62.804 15.7115 61.7157 15.3507 60.5999 15.366C59.4929 15.3521 58.4152 15.722 57.55 16.413C56.6624 17.1147 56.2185 18.2243 56.2185 19.7417V35.9017H49.5554V21.0561C49.5554 16.743 50.682 13.8562 52.9353 12.3957C55.1673 10.9472 57.7479 10.1257 60.4065 10.0172C63.1329 9.99688 65.8082 10.757 68.1166 12.2079C70.4685 13.6646 71.6426 16.614 71.6388 21.0561V35.9017Z" fill="#00A5D7"/>
<path d="M109.097 25.5282C109.159 26.2912 109.054 27.0584 108.79 27.7769C108.526 28.4953 108.109 29.1478 107.568 29.6891C107.026 30.2303 106.374 30.6474 105.655 30.9115C104.937 31.1755 104.17 31.2803 103.407 31.2184C102.515 31.2783 101.633 31.0045 100.932 30.4502C100.642 30.1486 100.417 29.7913 100.271 29.4C100.124 29.0087 100.058 28.5916 100.078 28.1741C100.089 27.4354 100.31 26.715 100.715 26.0972C101.425 25.4861 102.276 25.0617 103.191 24.8625L105.381 24.3845C106.66 24.1094 107.904 23.6934 109.091 23.1441L109.097 25.5282ZM115.282 25.8127V17.1523C115.32 16.1018 115.087 15.0592 114.605 14.1252C114.122 13.1912 113.407 12.3975 112.528 11.8207C110.749 10.6144 108.082 10.0112 104.528 10.0112C101.353 10.0112 98.9097 10.7415 97.1989 12.2019C95.7045 13.4115 94.7476 15.1618 94.5359 17.0727H100.909C101.047 16.7401 101.253 16.4399 101.514 16.1911C101.774 15.9423 102.084 15.7503 102.422 15.6274C103.187 15.3615 103.992 15.2325 104.801 15.2462C105.721 15.2608 106.635 15.4044 107.515 15.6729C107.944 15.751 108.33 15.9822 108.601 16.3234C108.872 16.6646 109.01 17.0926 108.989 17.5279C108.989 18.8025 107.595 19.6219 104.801 20.0088C104.232 20.0714 103.72 20.1511 103.282 20.2421C102.908 20.3289 102.527 20.3766 102.144 20.3843C100.006 20.6545 97.9643 21.4352 96.1917 22.6604C94.6402 23.7984 93.8626 25.6951 93.8588 28.3505C93.8588 31.2146 94.7161 33.2611 96.4307 34.4902C98.172 35.7496 100.274 36.4122 102.422 36.3793C103.744 36.3688 105.064 36.289 106.377 36.1403C107.857 35.9844 109.294 35.548 110.611 34.8544C111.966 34.1422 113.101 33.074 113.894 31.7646C114.808 30.3383 115.267 28.3543 115.271 25.8127" fill="#4C525E"/>
<path d="M118.548 4.52043H121.962C122.383 4.51366 122.8 4.59011 123.191 4.74538C123.581 4.90066 123.937 5.13169 124.238 5.42517C124.547 5.70867 124.792 6.05473 124.957 6.44031C125.122 6.82588 125.203 7.24214 125.194 7.66139V35.9015H118.548V4.52043Z" fill="#4C525E"/>
<path d="M130.958 44.852V39.6171H132.768C133.845 39.6748 134.908 39.3482 135.767 38.6953C136.495 38.0864 136.637 37.1248 136.193 35.7876L127.34 10.5803H134.668L139.79 28.4758L144.262 12.8621C144.641 11.3447 145.656 10.586 147.306 10.586H151.858L142.191 39.4236C141.432 41.5176 140.484 43.0084 139.346 43.8961C138.208 44.6585 136.33 45.0341 133.73 45.0341H132.398C132.166 44.9636 131.928 44.916 131.687 44.8918C131.449 44.8624 131.21 44.8472 130.97 44.8463" fill="#4C525E"/>
<path d="M164.667 35.9012H157.839C155.396 35.7078 154.174 34.1525 154.174 31.2353V4.4917H157.588C157.999 4.49261 158.405 4.57736 158.782 4.74076C159.158 4.90416 159.498 5.14277 159.779 5.44195C160.085 5.73608 160.328 6.08973 160.492 6.48115C160.657 6.87257 160.739 7.29349 160.735 7.71801V10.6484H164.633V12.0084C164.647 12.4422 164.57 12.8741 164.406 13.2761C164.242 13.6781 163.996 14.041 163.682 14.3413C163.073 14.9319 162.255 15.2572 161.406 15.2461H160.741V29.3348C160.741 30.416 161.372 30.9508 162.641 30.9508H164.638L164.667 35.9012Z" fill="#4C525E"/>
<path d="M167.859 4.52026H171.273C172.131 4.52177 172.954 4.86336 173.561 5.47022C174.168 6.07708 174.509 6.89972 174.511 7.75795V8.2473H167.859V4.52026Z" fill="#4C525E"/>
<path d="M174.494 10.5803H167.836V35.9014H174.494V10.5803Z" fill="#4C525E"/>
<path d="M199.929 10.5803V25.4316C199.929 29.9382 198.755 32.8894 196.406 34.2854C194.077 35.6773 191.41 36.4017 188.696 36.3794C186.05 36.2829 183.475 35.4984 181.225 34.1033C178.972 32.7112 177.845 29.8244 177.845 25.443V10.5803H184.508V26.746C184.508 28.2634 184.952 29.3748 185.84 30.0804C186.71 30.7803 187.796 31.1564 188.912 31.1445C190.032 31.1506 191.122 30.782 192.008 30.0975C192.911 29.3805 193.362 28.2634 193.362 26.746V13.818C193.351 12.9696 193.676 12.1512 194.267 11.542C194.566 11.2284 194.928 10.9817 195.329 10.8179C195.73 10.6542 196.161 10.5771 196.594 10.5917L199.929 10.5803Z" fill="#4C525E"/>
<path d="M225.489 35.9014H218.922V19.7187C218.922 18.2013 218.461 17.0917 217.54 16.3899C216.652 15.7112 215.562 15.3505 214.444 15.3657C213.339 15.3527 212.263 15.7226 211.4 16.4127C210.512 17.1145 210.068 18.224 210.068 19.7414V35.9014H203.405V21.0558C203.405 16.7427 204.532 13.8559 206.785 12.3955C209.016 10.9451 211.597 10.1234 214.256 10.017C215.698 10.0162 217.135 10.1746 218.541 10.4893C219.943 10.813 221.248 11.4665 222.348 12.3955C223.324 11.5568 224.481 10.9551 225.728 10.6372C227.049 10.2816 228.406 10.0736 229.773 10.017C232.5 9.99724 235.175 10.7573 237.483 12.2077C239.828 13.6644 241 16.6137 241 21.0558V35.9071H237.671C237.24 35.9266 236.81 35.8559 236.408 35.6998C236.006 35.5436 235.641 35.3053 235.337 35C235.032 34.6948 234.794 34.3294 234.639 33.9271C234.483 33.5248 234.413 33.0945 234.434 32.6637V19.7187C234.434 18.1994 233.978 17.0898 233.057 16.3899C232.166 15.7143 231.079 15.3485 229.961 15.3485C228.843 15.3485 227.756 15.7143 226.866 16.3899C225.948 17.0917 225.489 18.2013 225.489 19.7187V35.9014Z" fill="#4C525E"/>
</svg>
