<svg width="80" height="80" viewBox="0 0 80 80" fill="none" xmlns="http://www.w3.org/2000/svg">
<g clip-path="url(#clip0)">
<path d="M24.9471 47.4811C25.5097 48.3304 25.8065 49.312 25.8065 50.3226C25.8065 53.1691 23.4917 55.4839 20.6452 55.4839C19.6346 55.4839 18.653 55.1871 17.8037 54.6245L16.3792 56.7767C17.6518 57.6191 19.1268 58.0645 20.6452 58.0645C24.9149 58.0645 28.3871 54.5923 28.3871 50.3226C28.3871 48.8042 27.9417 47.3292 27.0993 46.0553L24.9471 47.4811Z" fill="#00A5D7"/>
<path d="M20.6452 45.1613C21.6557 45.1613 22.6386 45.4581 23.4854 46.0194L24.9112 43.8685C23.6397 43.0261 22.1654 42.5807 20.6452 42.5807C16.3754 42.5807 12.9032 46.0528 12.9032 50.3226C12.9032 51.841 13.3487 53.3159 14.191 54.5899L16.3432 53.1654C15.7806 52.3148 15.4839 51.3332 15.4839 50.3226C15.4839 47.4761 17.7986 45.1613 20.6452 45.1613Z" fill="#00A5D7"/>
<path d="M46.4516 54.1936V61.9355H51.6129V59.3549H49.0323V54.1936H46.4516Z" fill="#00A5D7"/>
<path d="M47.7419 46.4517C44.4764 46.4517 41.2865 47.5895 38.7601 49.6567L40.3963 51.6545C42.1264 50.2376 44.2414 49.3624 46.4516 49.1136V51.613H49.0323V49.1085C54.4065 49.7058 58.6813 53.9819 59.2786 59.3549H56.7742V61.9355H59.2736C59.0247 64.147 58.1496 66.2608 56.7326 67.9921L58.7292 69.6271C60.7964 67.1006 61.9355 63.9107 61.9355 60.6452C61.9355 52.8195 55.5677 46.4517 47.7419 46.4517Z" fill="#00A5D7"/>
<path d="M49.0323 72.1768V69.6774H46.4516V72.1819C41.0774 71.5846 36.8025 67.3085 36.2053 61.9355H38.7097V59.3549H36.2103C36.4592 57.1434 37.3343 55.0296 38.7513 53.2983L36.7547 51.6633C34.6875 54.1898 33.5484 57.3797 33.5484 60.6452C33.5484 68.4709 39.9162 74.8387 47.7419 74.8387C51.0074 74.8387 54.1973 73.7009 56.7238 71.6337L55.0876 69.6359C53.3575 71.0528 51.2437 71.9279 49.0323 72.1768Z" fill="#00A5D7"/>
<path d="M72.2581 59.3548H69.6774V23.2258H61.9355V47.5302C61.1473 46.6771 60.2841 45.8978 59.3548 45.1972V29.6774H51.6129V41.6797C50.7731 41.5083 49.9074 41.4132 49.0323 41.3546V36.129H41.2903V42.4193C39.9924 42.8799 38.7588 43.4746 37.604 44.1885C37.3444 43.4696 37.0583 42.764 36.7124 42.0904L38.7525 39.2332L31.7345 32.2127L28.876 34.254C28.0154 33.8142 27.1163 33.4425 26.187 33.1445L25.6105 29.6774H15.6811L15.1046 33.1445C14.1753 33.4425 13.2762 33.8142 12.4156 34.254L9.55771 32.2127L2.53906 39.2332L4.57913 42.0904C4.1381 42.9498 3.76638 43.8489 3.46837 44.7795L0 45.3585V55.2866L3.46711 55.8644C3.76512 56.795 4.1381 57.694 4.57787 58.5534L2.5378 61.41L9.55582 68.4312L12.4143 66.3898C13.2749 66.8296 14.174 67.2013 15.1033 67.4993L15.6798 70.9677H25.6092L26.1857 67.5006C27.115 67.2026 28.0141 66.8309 28.8747 66.3911L29.3908 66.7597C31.9601 74.4411 39.208 80 47.7419 80C57.9795 80 66.3628 72.0066 67.0312 61.9355H80V12.9032H72.2581V59.3548ZM64.5161 25.8064H67.0968V59.3548H67.0312C66.8309 56.3394 65.9444 53.5137 64.5161 51.0307V25.8064ZM54.1935 32.258H56.7742V43.5408C55.9495 43.1029 55.0838 42.7369 54.1935 42.4206V32.258ZM43.871 38.7096H46.4516V41.3558C45.5765 41.4144 44.7108 41.5095 43.871 41.6815V38.7096ZM28.3291 63.7525C27.2014 64.3989 25.9848 64.9017 24.7083 65.2476L23.9094 65.4643L23.4217 68.3871H17.8673L17.3797 65.4643L16.5808 65.2476C15.3056 64.9017 14.0877 64.3989 12.9599 63.7525L12.2411 63.3404L9.83493 65.0605L5.906 61.1328L7.62601 58.7241L7.21396 58.0053C6.5688 56.88 6.06477 55.6634 5.71888 54.3857L5.5034 53.5868L2.58065 53.1004V47.5447L5.5034 47.0583L5.72014 46.2594C6.06855 44.9804 6.57006 43.7626 7.21522 42.6398L7.62727 41.921L5.90726 39.5123L9.83619 35.5847L12.2423 37.3047L12.9612 36.8926C14.089 36.2462 15.3056 35.7434 16.582 35.3975L17.3809 35.1808L17.8686 32.258H23.423L23.9107 35.1808L24.7096 35.3975C25.9848 35.7434 27.2026 36.2462 28.3304 36.8926L29.0493 37.3047L31.4554 35.5847L35.3843 39.5123L33.6643 41.921L34.0764 42.6398C34.6333 43.6101 35.0617 44.6616 35.3988 45.751C34.644 46.3779 33.951 47.0734 33.2995 47.8049C32.1239 41.8914 26.8983 37.4193 20.6452 37.4193C13.5301 37.4193 7.74194 43.2075 7.74194 50.3226C7.74194 57.4376 13.5301 63.2258 20.6452 63.2258C23.4633 63.2258 26.1744 62.2725 28.3884 60.6105C28.3884 60.6218 28.3871 60.6338 28.3871 60.6451C28.3871 61.645 28.4866 62.619 28.6334 63.578L28.3291 63.7525ZM30.9356 51.0824C29.9641 52.7847 29.2364 54.6402 28.8155 56.6129C26.8668 59.1381 23.8363 60.6451 20.6452 60.6451C14.9534 60.6451 10.3226 56.0143 10.3226 50.3226C10.3226 44.6308 14.9534 40 20.6452 40C26.3369 40 30.9677 44.6308 30.9677 50.3226C30.9677 50.5796 30.9533 50.831 30.9356 51.0824ZM47.7419 77.4193C38.4929 77.4193 30.9677 69.8941 30.9677 60.6451C30.9677 51.3961 38.4929 43.8709 47.7419 43.8709C56.9909 43.8709 64.5161 51.3961 64.5161 60.6451C64.5161 69.8941 56.9909 77.4193 47.7419 77.4193ZM74.8387 15.4838H77.4193V59.3548H74.8387V15.4838Z" fill="#4C525E"/>
<path d="M72.2581 0V2.58065H75.0309L65.9022 9.88407L61.9355 5.91734L55.8518 12.001C55.3471 11.7584 54.7896 11.6129 54.1935 11.6129C52.0596 11.6129 50.3226 13.3499 50.3226 15.4839C50.3226 16.1511 50.5084 16.7704 50.8064 17.3185L44.0619 24.8129C43.6051 24.6232 43.1061 24.5161 42.5806 24.5161C42.5561 24.5161 42.534 24.5224 42.5094 24.5237L37.3211 10.6867C38.1628 9.97669 38.7097 8.92767 38.7097 7.74194C38.7097 5.60799 36.9727 3.87097 34.8387 3.87097C32.7048 3.87097 30.9677 5.60799 30.9677 7.74194C30.9677 8.02041 30.9999 8.29133 31.0566 8.55469L20.4788 15.063C19.8154 14.5275 18.9819 14.1935 18.0645 14.1935C16.3848 14.1935 14.9653 15.276 14.4311 16.7742H7.50441C6.97014 15.276 5.55065 14.1935 3.87097 14.1935C1.73702 14.1935 0 15.9306 0 18.0645C0 20.1985 1.73702 21.9355 3.87097 21.9355C5.55065 21.9355 6.97014 20.8531 7.50441 19.3548H14.4323C14.9666 20.8531 16.3861 21.9355 18.0658 21.9355C20.1997 21.9355 21.9367 20.1985 21.9367 18.0645C21.9367 17.786 21.9046 17.5151 21.8479 17.2518L32.4257 10.7434C33.0878 11.279 33.9214 11.6129 34.8387 11.6129C34.8633 11.6129 34.8853 11.6066 34.9099 11.6053L40.0983 25.441C39.2565 26.1523 38.7097 27.2014 38.7097 28.3871C38.7097 30.521 40.4467 32.2581 42.5806 32.2581C44.7146 32.2581 46.4516 30.521 46.4516 28.3871C46.4516 27.7199 46.267 27.1006 45.9677 26.5524L52.7123 19.0581C53.1691 19.2477 53.6681 19.3548 54.1935 19.3548C56.3275 19.3548 58.0645 17.6178 58.0645 15.4839C58.0645 14.8879 57.919 14.3303 57.6764 13.8256L61.9355 9.56653L65.7107 13.3417L77.4193 3.97555V7.74194H80V0H72.2581ZM3.87097 19.3548C3.15902 19.3548 2.58065 18.7752 2.58065 18.0645C2.58065 17.3538 3.15902 16.7742 3.87097 16.7742C4.58291 16.7742 5.16129 17.3538 5.16129 18.0645C5.16129 18.7752 4.58291 19.3548 3.87097 19.3548ZM18.0645 19.3548C17.3526 19.3548 16.7742 18.7752 16.7742 18.0645C16.7742 17.3538 17.3526 16.7742 18.0645 16.7742C18.7765 16.7742 19.3548 17.3538 19.3548 18.0645C19.3548 18.7752 18.7765 19.3548 18.0645 19.3548ZM33.5484 7.74194C33.5484 7.03125 34.1268 6.45161 34.8387 6.45161C35.5507 6.45161 36.129 7.03125 36.129 7.74194C36.129 8.45262 35.5507 9.03226 34.8387 9.03226C34.1268 9.03226 33.5484 8.45262 33.5484 7.74194ZM42.5806 29.6774C41.8687 29.6774 41.2903 29.0978 41.2903 28.3871C41.2903 27.6764 41.8687 27.0968 42.5806 27.0968C43.2926 27.0968 43.871 27.6764 43.871 28.3871C43.871 29.0978 43.2926 29.6774 42.5806 29.6774ZM54.1935 16.7742C53.4816 16.7742 52.9032 16.1946 52.9032 15.4839C52.9032 14.7732 53.4816 14.1935 54.1935 14.1935C54.9055 14.1935 55.4839 14.7732 55.4839 15.4839C55.4839 16.1946 54.9055 16.7742 54.1935 16.7742Z" fill="#4C525E"/>
</g>
<defs>
<clipPath id="clip0">
<rect width="80" height="80" fill="white"/>
</clipPath>
</defs>
</svg>
