<svg width="80" height="80" viewBox="0 0 80 80" fill="none" xmlns="http://www.w3.org/2000/svg">
<path d="M73.75 20.0001H72.1266C73.577 18.3822 74.5279 16.3789 74.8643 14.2323C75.2008 12.0857 74.9084 9.88754 74.0225 7.90351C73.1366 5.91948 71.695 4.23445 69.8721 3.05202C68.0492 1.86959 65.9228 1.24036 63.75 1.24036C61.5772 1.24036 59.4508 1.86959 57.6279 3.05202C55.805 4.23445 54.3635 5.91948 53.4775 7.90351C52.5916 9.88754 52.2992 12.0857 52.6357 14.2323C52.9721 16.3789 53.923 18.3822 55.3734 20.0001H40V7.50006C40 7.16854 39.8683 6.8506 39.6339 6.61618C39.3995 6.38176 39.0815 6.25006 38.75 6.25006H33.75C33.4185 6.25006 33.1005 6.38176 32.8661 6.61618C32.6317 6.8506 32.5 7.16854 32.5 7.50006V20.0001H31.25V2.50006C31.25 2.16854 31.1183 1.8506 30.8839 1.61618C30.6495 1.38176 30.3315 1.25006 30 1.25006H25C24.6685 1.25006 24.3505 1.38176 24.1161 1.61618C23.8817 1.8506 23.75 2.16854 23.75 2.50006V20.0001H22.5V11.2501C22.5 10.9185 22.3683 10.6006 22.1339 10.3662C21.8995 10.1318 21.5815 10.0001 21.25 10.0001H16.25C15.9185 10.0001 15.6005 10.1318 15.3661 10.3662C15.1317 10.6006 15 10.9185 15 11.2501V20.0001H6.25C4.92437 20.0016 3.65347 20.5288 2.71611 21.4662C1.77875 22.4035 1.25149 23.6744 1.25 25.0001V62.5001C1.25149 63.8257 1.77875 65.0966 2.71611 66.0339C3.65347 66.9713 4.92437 67.4986 6.25 67.5001H32.0156L30.3484 72.5001H26.25C25.9185 72.5001 25.6005 72.6318 25.3661 72.8662C25.1317 73.1006 25 73.4185 25 73.7501V76.2501H12.5C12.1685 76.2501 11.8505 76.3818 11.6161 76.6162C11.3817 76.8506 11.25 77.1685 11.25 77.5001C11.25 77.8316 11.3817 78.1495 11.6161 78.3839C11.8505 78.6184 12.1685 78.7501 12.5 78.7501H67.5C67.8315 78.7501 68.1495 78.6184 68.3839 78.3839C68.6183 78.1495 68.75 77.8316 68.75 77.5001C68.75 77.1685 68.6183 76.8506 68.3839 76.6162C68.1495 76.3818 67.8315 76.2501 67.5 76.2501H55V73.7501C55 73.4185 54.8683 73.1006 54.6339 72.8662C54.3995 72.6318 54.0815 72.5001 53.75 72.5001H49.6516L47.9844 67.5001H73.75C75.0756 67.4986 76.3465 66.9713 77.2839 66.0339C78.2212 65.0966 78.7485 63.8257 78.75 62.5001V25.0001C78.7485 23.6744 78.2212 22.4035 77.2839 21.4662C76.3465 20.5288 75.0756 20.0016 73.75 20.0001ZM65 3.84069C66.8682 4.1133 68.5984 4.98168 69.9334 6.31666C71.2684 7.65164 72.1368 9.3819 72.4094 11.2501H65V3.84069ZM64.2672 13.7501H72.4094C72.1935 15.2521 71.5904 16.6721 70.6594 17.8704C69.7285 19.0688 68.5017 20.0042 67.0997 20.5848C65.6977 21.1654 64.1687 21.3711 62.6631 21.1817C61.1575 20.9923 59.7271 20.4144 58.5125 19.5047L64.2672 13.7501ZM55 12.5001C55.003 10.3969 55.7623 8.36499 57.1392 6.77522C58.5161 5.18546 60.4188 4.1439 62.5 3.84069V11.9829L56.7453 17.7376C55.6107 16.2274 54.9981 14.389 55 12.5001ZM35 8.75006H37.5V32.5001H35V8.75006ZM31.25 22.5001H32.5V32.5001H31.25V22.5001ZM26.25 3.75006H28.75V32.5001H26.25V3.75006ZM22.5 22.5001H23.75V32.5001H22.5V22.5001ZM17.5 12.5001H20V32.5001H17.5V12.5001ZM52.5 75.0001V76.2501H27.5V75.0001H52.5ZM32.9844 72.5001L34.6516 67.5001H45.3484L47.0156 72.5001H32.9844ZM76.25 62.5001C76.2491 63.1628 75.9855 63.7982 75.5168 64.2669C75.0482 64.7355 74.4128 64.9992 73.75 65.0001H6.25C5.58723 64.9992 4.95184 64.7355 4.48319 64.2669C4.01454 63.7982 3.75087 63.1628 3.75 62.5001V60.0001H76.25V62.5001ZM76.25 57.5001H3.75V25.0001C3.75087 24.3373 4.01454 23.7019 4.48319 23.2333C4.95184 22.7646 5.58723 22.5009 6.25 22.5001H15V32.5001H13.75V25.0001C13.75 24.6685 13.6183 24.3506 13.3839 24.1162C13.1495 23.8818 12.8315 23.7501 12.5 23.7501H7.5C7.16848 23.7501 6.85054 23.8818 6.61612 24.1162C6.3817 24.3506 6.25 24.6685 6.25 25.0001V33.7501C6.25 34.0816 6.3817 34.3995 6.61612 34.6339C6.85054 34.8684 7.16848 35.0001 7.5 35.0001H47.5C47.8315 35.0001 48.1495 34.8684 48.3839 34.6339C48.6183 34.3995 48.75 34.0816 48.75 33.7501V25.0001C48.75 24.6685 48.6183 24.3506 48.3839 24.1162C48.1495 23.8818 47.8315 23.7501 47.5 23.7501H42.5C42.1685 23.7501 41.8505 23.8818 41.6161 24.1162C41.3817 24.3506 41.25 24.6685 41.25 25.0001V32.5001H40V22.5001H58.6062C60.1964 23.3214 61.9602 23.7501 63.75 23.7501C65.5398 23.7501 67.3036 23.3214 68.8938 22.5001H73.75C74.4128 22.5009 75.0482 22.7646 75.5168 23.2333C75.9855 23.7019 76.2491 24.3373 76.25 25.0001V57.5001ZM11.25 26.2501V32.5001H8.75V26.2501H11.25ZM43.75 32.5001V26.2501H46.25V32.5001H43.75Z" fill="#4C525E"/>
<path d="M15 61.2501H7.5C7.16848 61.2501 6.85054 61.3818 6.61612 61.6162C6.3817 61.8507 6.25 62.1686 6.25 62.5001C6.25 62.8316 6.3817 63.1496 6.61612 63.384C6.85054 63.6184 7.16848 63.7501 7.5 63.7501H15C15.3315 63.7501 15.6495 63.6184 15.8839 63.384C16.1183 63.1496 16.25 62.8316 16.25 62.5001C16.25 62.1686 16.1183 61.8507 15.8839 61.6162C15.6495 61.3818 15.3315 61.2501 15 61.2501Z" fill="#4C525E"/>
<path d="M20 61.2501H18.75C18.4185 61.2501 18.1005 61.3818 17.8661 61.6162C17.6317 61.8507 17.5 62.1686 17.5 62.5001C17.5 62.8316 17.6317 63.1496 17.8661 63.384C18.1005 63.6184 18.4185 63.7501 18.75 63.7501H20C20.3315 63.7501 20.6495 63.6184 20.8839 63.384C21.1183 63.1496 21.25 62.8316 21.25 62.5001C21.25 62.1686 21.1183 61.8507 20.8839 61.6162C20.6495 61.3818 20.3315 61.2501 20 61.2501Z" fill="#4C525E"/>
<path d="M53.75 32.5C53.9141 32.5002 54.0768 32.468 54.2284 32.4052C54.3801 32.3424 54.5179 32.2502 54.6339 32.1339L59.2676 27.5H69.9999C70.3315 27.5 70.6494 27.3683 70.8838 27.1339C71.1182 26.8995 71.2499 26.5815 71.2499 26.25C71.2499 25.9185 71.1182 25.6005 70.8838 25.3661C70.6494 25.1317 70.3315 25 69.9999 25H58.7499C58.5858 25 58.4232 25.0323 58.2716 25.0951C58.1199 25.158 57.9821 25.25 57.866 25.3661L52.866 30.3661C52.6912 30.5409 52.5722 30.7636 52.5239 31.0061C52.4757 31.2486 52.5005 31.5 52.5951 31.7284C52.6897 31.9568 52.8499 32.152 53.0555 32.2894C53.261 32.4267 53.5027 32.5 53.75 32.5Z" fill="#00A5D7"/>
<path d="M70.0001 46.2501C69.3432 46.2506 68.698 46.4236 68.129 46.7518C67.56 47.0801 67.0872 47.552 66.7579 48.1204L53.672 40.4861C53.4947 39.6342 53.0267 38.8705 52.3482 38.3258C51.6697 37.7811 50.8229 37.4893 49.9529 37.5004C49.0829 37.5115 48.2438 37.8248 47.5794 38.3866C46.915 38.9484 46.4666 39.7237 46.311 40.5798L33.1423 50.4564C32.784 49.9047 32.2869 49.457 31.7007 49.1584C31.1146 48.8598 30.4602 48.7208 29.8033 48.7553C29.1464 48.7898 28.5102 48.9967 27.9586 49.3551C27.407 49.7135 26.9595 50.2108 26.661 50.797L13.6454 45.3736C13.44 44.5173 12.94 43.7605 12.2329 43.2358C11.5258 42.7111 10.6566 42.4518 9.77754 42.5034C8.89849 42.5549 8.0656 42.9141 7.42469 43.5179C6.78379 44.1218 6.3757 44.9318 6.27189 45.8062C6.16809 46.6806 6.37517 47.5637 6.85689 48.3008C7.33861 49.0379 8.06426 49.5821 8.90679 49.8381C9.74933 50.094 10.6551 50.0455 11.4654 49.7009C12.2757 49.3563 12.939 48.7376 13.3392 47.9532L26.3548 53.3767C26.5557 54.213 27.0381 54.9547 27.721 55.4776C28.4039 56.0005 29.2459 56.2726 30.1056 56.2485C30.9654 56.2243 31.7907 55.9052 32.4431 55.3448C33.0956 54.7844 33.5355 54.0167 33.6892 53.1704L46.8579 43.2939C47.2068 43.8313 47.6876 44.2702 48.2546 44.5688C48.8215 44.8673 49.4555 45.0154 50.096 44.9989C50.7365 44.9825 51.3621 44.802 51.913 44.4748C52.4638 44.1475 52.9215 43.6844 53.2423 43.1298L66.3282 50.7642C66.4727 51.4582 66.8109 52.0971 67.3037 52.6068C67.7964 53.1164 68.4236 53.4759 69.1124 53.6437C69.8012 53.8114 70.5234 53.7804 71.1953 53.5544C71.8672 53.3283 72.4613 52.9164 72.9087 52.3665C73.356 51.8165 73.6383 51.151 73.7228 50.4472C73.8073 49.7433 73.6906 49.0299 73.3862 48.3897C73.0817 47.7494 72.602 47.2086 72.0027 46.83C71.4034 46.4513 70.709 46.2502 70.0001 46.2501ZM11.2501 46.2564C11.2493 46.5884 11.1167 46.9066 10.8814 47.141C10.6462 47.3754 10.3275 47.5068 9.99541 47.5064C9.66333 47.506 9.345 47.3737 9.11033 47.1388C8.87566 46.9038 8.74385 46.5853 8.74385 46.2532C8.74385 45.9212 8.87566 45.6027 9.11033 45.3677C9.345 45.1327 9.66333 45.0005 9.99541 45.0001C10.3275 44.9997 10.6462 45.1311 10.8814 45.3655C11.1167 45.5999 11.2493 45.918 11.2501 46.2501V46.2564ZM30.0001 53.7501C29.6687 53.7497 29.351 53.6178 29.1167 53.3835C28.8824 53.1492 28.7506 52.8315 28.7501 52.5001V52.4939C28.7513 52.2469 28.8257 52.0059 28.9638 51.8011C29.1019 51.5964 29.2975 51.4371 29.5261 51.3435C29.7546 51.2498 30.0057 51.226 30.2478 51.2749C30.4898 51.3238 30.712 51.4434 30.8862 51.6184C31.0604 51.7935 31.1788 52.0162 31.2265 52.2585C31.2742 52.5008 31.2491 52.7519 31.1543 52.9799C31.0595 53.208 30.8993 53.4028 30.6939 53.5399C30.4885 53.677 30.2471 53.7501 30.0001 53.7501ZM50.0001 42.5001C49.7529 42.5001 49.5112 42.4268 49.3056 42.2895C49.1001 42.1521 48.9399 41.9569 48.8453 41.7285C48.7506 41.5001 48.7259 41.2487 48.7741 41.0063C48.8224 40.7638 48.9414 40.541 49.1162 40.3662C49.291 40.1914 49.5138 40.0724 49.7562 40.0241C49.9987 39.9759 50.25 40.0007 50.4785 40.0953C50.7069 40.1899 50.9021 40.3501 51.0394 40.5557C51.1768 40.7612 51.2501 41.0029 51.2501 41.2501C51.2496 41.5815 51.1178 41.8992 50.8835 42.1335C50.6492 42.3678 50.3315 42.4997 50.0001 42.5001ZM70.0001 51.2501C69.7529 51.2501 69.5112 51.1768 69.3056 51.0395C69.1001 50.9021 68.9399 50.7069 68.8453 50.4785C68.7507 50.2501 68.7259 49.9987 68.7741 49.7563C68.8224 49.5138 68.9414 49.291 69.1162 49.1162C69.291 48.9414 69.5138 48.8224 69.7562 48.7741C69.9987 48.7259 70.2501 48.7507 70.4785 48.8453C70.7069 48.9399 70.9021 49.1001 71.0394 49.3057C71.1768 49.5112 71.2501 49.7529 71.2501 50.0001C71.2497 50.3315 71.1178 50.6492 70.8835 50.8835C70.6492 51.1178 70.3315 51.2497 70.0001 51.2501Z" fill="#00A5D7"/>
<path d="M60 53.7501H51.25C50.9185 53.7501 50.6005 53.8818 50.3661 54.1162C50.1317 54.3507 50 54.6686 50 55.0001C50 55.3316 50.1317 55.6496 50.3661 55.884C50.6005 56.1184 50.9185 56.2501 51.25 56.2501H60C60.3315 56.2501 60.6495 56.1184 60.8839 55.884C61.1183 55.6496 61.25 55.3316 61.25 55.0001C61.25 54.6686 61.1183 54.3507 60.8839 54.1162C60.6495 53.8818 60.3315 53.7501 60 53.7501Z" fill="#4C525E"/>
<path d="M60 50.0001H56.25C55.9185 50.0001 55.6005 50.1318 55.3661 50.3662C55.1317 50.6007 55 50.9186 55 51.2501C55 51.5816 55.1317 51.8996 55.3661 52.134C55.6005 52.3684 55.9185 52.5001 56.25 52.5001H60C60.3315 52.5001 60.6495 52.3684 60.8839 52.134C61.1183 51.8996 61.25 51.5816 61.25 51.2501C61.25 50.9186 61.1183 50.6007 60.8839 50.3662C60.6495 50.1318 60.3315 50.0001 60 50.0001Z" fill="#4C525E"/>
<path d="M7.5 38.75H21.25C21.5815 38.75 21.8995 38.6183 22.1339 38.3839C22.3683 38.1495 22.5 37.8315 22.5 37.5C22.5 37.1685 22.3683 36.8505 22.1339 36.6161C21.8995 36.3817 21.5815 36.25 21.25 36.25H7.5C7.16848 36.25 6.85054 36.3817 6.61612 36.6161C6.3817 36.8505 6.25 37.1685 6.25 37.5C6.25 37.8315 6.3817 38.1495 6.61612 38.3839C6.85054 38.6183 7.16848 38.75 7.5 38.75Z" fill="#4C525E"/>
<path d="M25 38.75H26.25C26.5815 38.75 26.8995 38.6183 27.1339 38.3839C27.3683 38.1495 27.5 37.8315 27.5 37.5C27.5 37.1685 27.3683 36.8505 27.1339 36.6161C26.8995 36.3817 26.5815 36.25 26.25 36.25H25C24.6685 36.25 24.3505 36.3817 24.1161 36.6161C23.8817 36.8505 23.75 37.1685 23.75 37.5C23.75 37.8315 23.8817 38.1495 24.1161 38.3839C24.3505 38.6183 24.6685 38.75 25 38.75Z" fill="#4C525E"/>
</svg>
