<svg width="80" height="80" viewBox="0 0 80 80" fill="none" xmlns="http://www.w3.org/2000/svg">
<path d="M60 14.375V11.25H77.5C77.8315 11.25 78.1495 11.1183 78.3839 10.8839C78.6183 10.6495 78.75 10.3315 78.75 10V2.5C78.75 2.16848 78.6183 1.85054 78.3839 1.61612C78.1495 1.3817 77.8315 1.25 77.5 1.25H47.5C47.1685 1.25 46.8505 1.3817 46.6161 1.61612C46.3817 1.85054 46.25 2.16848 46.25 2.5V10C46.25 10.3315 46.3817 10.6495 46.6161 10.8839C46.8505 11.1183 47.1685 11.25 47.5 11.25H57.5V13.8578L52.8219 18.5359C48.9953 16.2562 44.6291 15.0403 40.175 15.0141C40.0591 14.9953 39.9409 14.9953 39.825 15.0141C35.1105 15.0418 30.5003 16.4038 26.5276 18.9425C22.5549 21.4812 19.3822 25.0927 17.3766 29.3594L10 21.9828V15H27.5C27.8315 15 28.1495 14.8683 28.3839 14.6339C28.6183 14.3995 28.75 14.0815 28.75 13.75V2.5C28.75 2.16848 28.6183 1.85054 28.3839 1.61612C28.1495 1.3817 27.8315 1.25 27.5 1.25H2.5C2.16848 1.25 1.85054 1.3817 1.61612 1.61612C1.3817 1.85054 1.25 2.16848 1.25 2.5V13.75C1.25 14.0815 1.3817 14.3995 1.61612 14.6339C1.85054 14.8683 2.16848 15 2.5 15H7.5V22.5C7.49988 22.8316 7.63138 23.1497 7.86562 23.3844L16.3594 31.8781C15.1724 35.3256 14.7545 38.9912 15.1353 42.6174C15.516 46.2436 16.686 49.7425 18.5632 52.8683C20.4404 55.994 22.9791 58.6709 26.0012 60.7109C29.0232 62.7509 32.4553 64.1045 36.0562 64.6766L31.9828 68.75H2.5C2.16848 68.75 1.85054 68.8817 1.61612 69.1161C1.3817 69.3505 1.25 69.6685 1.25 70V77.5C1.25 77.8315 1.3817 78.1495 1.61612 78.3839C1.85054 78.6183 2.16848 78.75 2.5 78.75H32.5C32.8315 78.75 33.1495 78.6183 33.3839 78.3839C33.6183 78.1495 33.75 77.8315 33.75 77.5V70.5172L39.2906 64.9766C39.5266 64.9844 39.7641 64.9875 40 64.9875C46.5033 64.9985 52.7533 62.4667 57.4156 57.9328L63.5625 64.0812C62.0699 65.7085 61.2488 67.8406 61.2644 70.0487C61.2799 72.2568 62.131 74.3771 63.6464 75.9832C65.1617 77.5893 67.2291 78.5621 69.4325 78.7058C71.636 78.8496 73.8122 78.1537 75.5234 76.7581C77.2346 75.3625 78.3539 73.3707 78.6562 71.1834C78.9586 68.996 78.4214 66.7753 77.1529 64.9679C75.8844 63.1605 73.9785 61.9004 71.8187 61.4411C69.6588 60.9818 67.4052 61.3573 65.5109 62.4922L59.1219 56.1031C62.8799 51.644 64.955 46.008 64.9859 40.1766C65.0047 40.0596 65.0047 39.9404 64.9859 39.8234C64.9518 33.2545 62.3255 26.9646 57.6781 22.3219C56.8229 21.4679 55.9075 20.6762 54.9391 19.9531L59.6344 15.2594C59.8686 15.0247 60.0001 14.7066 60 14.375ZM3.75 12.5V3.75H26.25V12.5H3.75ZM31.25 76.25H3.75V71.25H31.25V76.25ZM70 63.75C71.2361 63.75 72.4445 64.1166 73.4723 64.8033C74.5001 65.4901 75.3012 66.4662 75.7742 67.6082C76.2473 68.7503 76.3711 70.0069 76.1299 71.2193C75.8887 72.4317 75.2935 73.5453 74.4194 74.4194C73.5453 75.2935 72.4317 75.8887 71.2193 76.1299C70.0069 76.3711 68.7503 76.2473 67.6082 75.7742C66.4662 75.3012 65.4901 74.5001 64.8033 73.4723C64.1166 72.4445 63.75 71.2361 63.75 70C63.7517 68.3429 64.4107 66.7542 65.5824 65.5824C66.7542 64.4107 68.3429 63.7517 70 63.75ZM18.3563 33.8734L22.8656 38.3844C23.1002 38.6189 23.4183 38.7507 23.75 38.7507C24.0817 38.7507 24.3998 38.6189 24.6344 38.3844C24.8689 38.1498 25.0007 37.8317 25.0007 37.5C25.0007 37.1683 24.8689 36.8502 24.6344 36.6156L19.2703 31.2531C20.9067 27.3727 23.6006 24.0302 27.0448 21.6067C30.489 19.1833 34.5449 17.7766 38.75 17.5469V39.4828L23.2312 55.0016C20.7066 52.1745 18.9362 48.756 18.084 45.0627C17.2319 41.3695 17.3255 37.5209 18.3563 33.8734ZM57.3469 54.3297L55.8844 52.8656C55.6497 52.6314 55.3316 52.4999 55 52.5H45C44.6685 52.5 44.3505 52.6317 44.1161 52.8661C43.8817 53.1005 43.75 53.4185 43.75 53.75C43.75 54.0815 43.8817 54.3995 44.1161 54.6339C44.3505 54.8683 44.6685 55 45 55H54.4828L55.6484 56.1656C51.5586 60.1155 46.1265 62.3728 40.4418 62.4847C34.7572 62.5965 29.2405 60.5547 24.9984 56.7688L40.5172 41.25H62.4531C62.1953 46.0441 60.4054 50.6289 57.3469 54.3297ZM55.9094 24.0906C59.8264 28.0011 62.1574 33.223 62.4531 38.75H41.25V17.5469C44.6697 17.7324 48.0018 18.6965 50.9922 20.3656L48.4906 22.8656C48.2561 23.1002 48.1243 23.4183 48.1243 23.75C48.1243 24.0817 48.2561 24.3998 48.4906 24.6344C48.7252 24.8689 49.0433 25.0007 49.375 25.0007C49.7067 25.0007 50.0248 24.8689 50.2594 24.6344L53.15 21.7422C54.1318 22.4491 55.0546 23.2345 55.9094 24.0906ZM48.75 8.75V3.75H76.25V8.75H48.75Z" fill="#4C525E"/>
<path d="M77.5 12.5H66.0938C65.7622 12.5 65.4443 12.6317 65.2099 12.8661C64.9754 13.1005 64.8438 13.4185 64.8438 13.75C64.8438 14.0815 64.9754 14.3995 65.2099 14.6339C65.4443 14.8683 65.7622 15 66.0938 15H77.5C77.8315 15 78.1495 14.8683 78.3839 14.6339C78.6183 14.3995 78.75 14.0815 78.75 13.75C78.75 13.4185 78.6183 13.1005 78.3839 12.8661C78.1495 12.6317 77.8315 12.5 77.5 12.5Z" fill="#00A5D7"/>
<path d="M77.5 16.25H70C69.6685 16.25 69.3505 16.3817 69.1161 16.6161C68.8817 16.8505 68.75 17.1685 68.75 17.5C68.75 17.8315 68.8817 18.1495 69.1161 18.3839C69.3505 18.6183 69.6685 18.75 70 18.75H77.5C77.8315 18.75 78.1495 18.6183 78.3839 18.3839C78.6183 18.1495 78.75 17.8315 78.75 17.5C78.75 17.1685 78.6183 16.8505 78.3839 16.6161C78.1495 16.3817 77.8315 16.25 77.5 16.25Z" fill="#00A5D7"/>
<path d="M77.5 20H71.25C70.9185 20 70.6005 20.1317 70.3661 20.3661C70.1317 20.6005 70 20.9185 70 21.25V26.25C70 26.5815 70.1317 26.8995 70.3661 27.1339C70.6005 27.3683 70.9185 27.5 71.25 27.5H77.5C77.8315 27.5 78.1495 27.3683 78.3839 27.1339C78.6183 26.8995 78.75 26.5815 78.75 26.25V21.25C78.75 20.9185 78.6183 20.6005 78.3839 20.3661C78.1495 20.1317 77.8315 20 77.5 20ZM76.25 25H72.5V22.5H76.25V25Z" fill="#00A5D7"/>
<path d="M2.5 67.5H16.25C16.5815 67.5 16.8995 67.3683 17.1339 67.1339C17.3683 66.8995 17.5 66.5815 17.5 66.25C17.5 65.9185 17.3683 65.6005 17.1339 65.3661C16.8995 65.1317 16.5815 65 16.25 65H2.5C2.16848 65 1.85054 65.1317 1.61612 65.3661C1.3817 65.6005 1.25 65.9185 1.25 66.25C1.25 66.5815 1.3817 66.8995 1.61612 67.1339C1.85054 67.3683 2.16848 67.5 2.5 67.5Z" fill="#00A5D7"/>
<path d="M2.5 63.75H10C10.3315 63.75 10.6495 63.6183 10.8839 63.3839C11.1183 63.1495 11.25 62.8315 11.25 62.5C11.25 62.1685 11.1183 61.8505 10.8839 61.6161C10.6495 61.3817 10.3315 61.25 10 61.25H2.5C2.16848 61.25 1.85054 61.3817 1.61612 61.6161C1.3817 61.8505 1.25 62.1685 1.25 62.5C1.25 62.8315 1.3817 63.1495 1.61612 63.3839C1.85054 63.6183 2.16848 63.75 2.5 63.75Z" fill="#00A5D7"/>
<path d="M2.5 60H8.75C9.08152 60 9.39946 59.8683 9.63388 59.6339C9.8683 59.3995 10 59.0815 10 58.75V53.75C10 53.4185 9.8683 53.1005 9.63388 52.8661C9.39946 52.6317 9.08152 52.5 8.75 52.5H2.5C2.16848 52.5 1.85054 52.6317 1.61612 52.8661C1.3817 53.1005 1.25 53.4185 1.25 53.75V58.75C1.25 59.0815 1.3817 59.3995 1.61612 59.6339C1.85054 59.8683 2.16848 60 2.5 60ZM3.75 55H7.5V57.5H3.75V55Z" fill="#00A5D7"/>
<path d="M6.25 7.5H13.75C14.0815 7.5 14.3995 7.3683 14.6339 7.13388C14.8683 6.89946 15 6.58152 15 6.25C15 5.91848 14.8683 5.60054 14.6339 5.36612C14.3995 5.1317 14.0815 5 13.75 5H6.25C5.91848 5 5.60054 5.1317 5.36612 5.36612C5.1317 5.60054 5 5.91848 5 6.25C5 6.58152 5.1317 6.89946 5.36612 7.13388C5.60054 7.3683 5.91848 7.5 6.25 7.5Z" fill="#00A5D7"/>
<path d="M17.5 7.5H18.75C19.0815 7.5 19.3995 7.3683 19.6339 7.13388C19.8683 6.89946 20 6.58152 20 6.25C20 5.91848 19.8683 5.60054 19.6339 5.36612C19.3995 5.1317 19.0815 5 18.75 5H17.5C17.1685 5 16.8505 5.1317 16.6161 5.36612C16.3817 5.60054 16.25 5.91848 16.25 6.25C16.25 6.58152 16.3817 6.89946 16.6161 7.13388C16.8505 7.3683 17.1685 7.5 17.5 7.5Z" fill="#00A5D7"/>
<path d="M12.5 10C12.5 9.66848 12.3683 9.35054 12.1339 9.11612C11.8995 8.8817 11.5815 8.75 11.25 8.75H6.25C5.91848 8.75 5.60054 8.8817 5.36612 9.11612C5.1317 9.35054 5 9.66848 5 10C5 10.3315 5.1317 10.6495 5.36612 10.8839C5.60054 11.1183 5.91848 11.25 6.25 11.25H11.25C11.5815 11.25 11.8995 11.1183 12.1339 10.8839C12.3683 10.6495 12.5 10.3315 12.5 10Z" fill="#00A5D7"/>
<path d="M67.5 7.5H73.75C74.0815 7.5 74.3995 7.3683 74.6339 7.13388C74.8683 6.89946 75 6.58152 75 6.25C75 5.91848 74.8683 5.60054 74.6339 5.36612C74.3995 5.1317 74.0815 5 73.75 5H67.5C67.1685 5 66.8505 5.1317 66.6161 5.36612C66.3817 5.60054 66.25 5.91848 66.25 6.25C66.25 6.58152 66.3817 6.89946 66.6161 7.13388C66.8505 7.3683 67.1685 7.5 67.5 7.5Z" fill="#00A5D7"/>
<path d="M62.5 7.5H63.75C64.0815 7.5 64.3995 7.3683 64.6339 7.13388C64.8683 6.89946 65 6.58152 65 6.25C65 5.91848 64.8683 5.60054 64.6339 5.36612C64.3995 5.1317 64.0815 5 63.75 5H62.5C62.1685 5 61.8505 5.1317 61.6161 5.36612C61.3817 5.60054 61.25 5.91848 61.25 6.25C61.25 6.58152 61.3817 6.89946 61.6161 7.13388C61.8505 7.3683 62.1685 7.5 62.5 7.5Z" fill="#00A5D7"/>
<path d="M6.25 75H13.75C14.0815 75 14.3995 74.8683 14.6339 74.6339C14.8683 74.3995 15 74.0815 15 73.75C15 73.4185 14.8683 73.1005 14.6339 72.8661C14.3995 72.6317 14.0815 72.5 13.75 72.5H6.25C5.91848 72.5 5.60054 72.6317 5.36612 72.8661C5.1317 73.1005 5 73.4185 5 73.75C5 74.0815 5.1317 74.3995 5.36612 74.6339C5.60054 74.8683 5.91848 75 6.25 75Z" fill="#00A5D7"/>
<path d="M17.5 75H18.75C19.0815 75 19.3995 74.8683 19.6339 74.6339C19.8683 74.3995 20 74.0815 20 73.75C20 73.4185 19.8683 73.1005 19.6339 72.8661C19.3995 72.6317 19.0815 72.5 18.75 72.5H17.5C17.1685 72.5 16.8505 72.6317 16.6161 72.8661C16.3817 73.1005 16.25 73.4185 16.25 73.75C16.25 74.0815 16.3817 74.3995 16.6161 74.6339C16.8505 74.8683 17.1685 75 17.5 75Z" fill="#00A5D7"/>
<path d="M51.25 48.75H45C44.6685 48.75 44.3505 48.8817 44.1161 49.1161C43.8817 49.3505 43.75 49.6685 43.75 50C43.75 50.3315 43.8817 50.6495 44.1161 50.8839C44.3505 51.1183 44.6685 51.25 45 51.25H51.25C51.5815 51.25 51.8995 51.1183 52.1339 50.8839C52.3683 50.6495 52.5 50.3315 52.5 50C52.5 49.6685 52.3683 49.3505 52.1339 49.1161C51.8995 48.8817 51.5815 48.75 51.25 48.75Z" fill="#00A5D7"/>
<path d="M45 47.5H47.5C47.8315 47.5 48.1495 47.3683 48.3839 47.1339C48.6183 46.8995 48.75 46.5815 48.75 46.25C48.75 45.9185 48.6183 45.6005 48.3839 45.3661C48.1495 45.1317 47.8315 45 47.5 45H45C44.6685 45 44.3505 45.1317 44.1161 45.3661C43.8817 45.6005 43.75 45.9185 43.75 46.25C43.75 46.5815 43.8817 46.8995 44.1161 47.1339C44.3505 47.3683 44.6685 47.5 45 47.5Z" fill="#00A5D7"/>
<path d="M70 73.75C70.7417 73.75 71.4667 73.5301 72.0834 73.118C72.7001 72.706 73.1807 72.1203 73.4646 71.4351C73.7484 70.7498 73.8226 69.9958 73.678 69.2684C73.5333 68.541 73.1761 67.8728 72.6517 67.3484C72.1272 66.8239 71.459 66.4668 70.7316 66.3221C70.0042 66.1774 69.2502 66.2516 68.5649 66.5355C67.8797 66.8193 67.294 67.2999 66.882 67.9166C66.4699 68.5333 66.25 69.2583 66.25 70C66.2511 70.9942 66.6466 71.9474 67.3496 72.6504C68.0526 73.3534 69.0058 73.7489 70 73.75ZM70 68.75C70.2472 68.75 70.4889 68.8233 70.6945 68.9607C70.9 69.098 71.0602 69.2932 71.1549 69.5217C71.2495 69.7501 71.2742 70.0014 71.226 70.2439C71.1778 70.4863 71.0587 70.7091 70.8839 70.8839C70.7091 71.0587 70.4863 71.1778 70.2439 71.226C70.0014 71.2742 69.7501 71.2495 69.5216 71.1549C69.2932 71.0602 69.098 70.9 68.9607 70.6945C68.8233 70.4889 68.75 70.2472 68.75 70C68.7504 69.6686 68.8822 69.3509 69.1165 69.1165C69.3509 68.8822 69.6686 68.7504 70 68.75Z" fill="#00A5D7"/>
<path d="M77.5 28.75H73.75C73.4185 28.75 73.1005 28.8817 72.8661 29.1161C72.6317 29.3505 72.5 29.6685 72.5 30V53.75C72.5 54.0815 72.6317 54.3995 72.8661 54.6339C73.1005 54.8683 73.4185 55 73.75 55H77.5C77.8315 55 78.1495 54.8683 78.3839 54.6339C78.6183 54.3995 78.75 54.0815 78.75 53.75V30C78.75 29.6685 78.6183 29.3505 78.3839 29.1161C78.1495 28.8817 77.8315 28.75 77.5 28.75ZM76.25 52.5H75V31.25H76.25V52.5Z" fill="#00A5D7"/>
<path d="M2.5 51.25H6.25C6.58152 51.25 6.89946 51.1183 7.13388 50.8839C7.3683 50.6495 7.5 50.3315 7.5 50V31.25C7.5 30.9185 7.3683 30.6005 7.13388 30.3661C6.89946 30.1317 6.58152 30 6.25 30H2.5C2.16848 30 1.85054 30.1317 1.61612 30.3661C1.3817 30.6005 1.25 30.9185 1.25 31.25V50C1.25 50.3315 1.3817 50.6495 1.61612 50.8839C1.85054 51.1183 2.16848 51.25 2.5 51.25ZM3.75 32.5H5V48.75H3.75V32.5Z" fill="#00A5D7"/>
</svg>
