<svg width="435" height="442" viewBox="0 0 435 442" fill="none" xmlns="http://www.w3.org/2000/svg">
<path d="M28.1248 236.625C28.1248 236.211 27.9601 235.813 27.6671 235.52C27.3741 235.227 26.9767 235.063 26.5623 235.063H19.7154L27.9685 218.573C28.0739 218.356 28.1274 218.117 28.1248 217.875C28.123 213.924 29.1916 210.047 31.217 206.655C33.2425 203.263 36.149 200.483 39.6279 198.611C39.9834 198.409 40.2458 198.077 40.3588 197.684C40.4719 197.291 40.4266 196.87 40.2326 196.51C40.0387 196.15 39.7115 195.881 39.3213 195.76C38.9311 195.638 38.5088 195.675 38.1451 195.861C34.2247 197.97 30.9391 201.088 28.628 204.893C26.3169 208.697 25.0643 213.05 24.9998 217.502L15.781 235.927C15.6616 236.165 15.6055 236.431 15.6179 236.698C15.6303 236.964 15.7109 237.224 15.8519 237.45C15.9929 237.677 16.1897 237.864 16.4235 237.993C16.6573 238.122 16.9202 238.189 17.1873 238.188H26.5623C26.9767 238.188 27.3741 238.023 27.6671 237.73C27.9601 237.437 28.1248 237.039 28.1248 236.625Z" fill="#00A5D7"/>
<path d="M32.8125 221C32.8125 222.236 33.1791 223.445 33.8658 224.472C34.5526 225.5 35.5287 226.301 36.6707 226.774C37.8128 227.247 39.0694 227.371 40.2818 227.13C41.4942 226.889 42.6078 226.294 43.4819 225.419C44.356 224.545 44.9513 223.432 45.1924 222.219C45.4336 221.007 45.3098 219.75 44.8368 218.608C44.3637 217.466 43.5626 216.49 42.5348 215.803C41.507 215.117 40.2986 214.75 39.0625 214.75C37.4049 214.75 35.8152 215.408 34.6431 216.581C33.471 217.753 32.8125 219.342 32.8125 221ZM42.1875 221C42.1875 221.618 42.0042 222.222 41.6608 222.736C41.3175 223.25 40.8294 223.651 40.2584 223.887C39.6874 224.124 39.059 224.186 38.4528 224.065C37.8467 223.944 37.2898 223.647 36.8528 223.21C36.4158 222.773 36.1181 222.216 35.9975 221.61C35.877 221.003 35.9389 220.375 36.1754 219.804C36.4119 219.233 36.8124 218.745 37.3263 218.402C37.8402 218.058 38.4444 217.875 39.0625 217.875C39.8913 217.875 40.6862 218.204 41.2722 218.79C41.8583 219.376 42.1875 220.171 42.1875 221Z" fill="#00A5D7"/>
<path d="M57.8125 186.625V205.375C57.8125 208.597 62.6719 210.063 67.1875 210.063C71.7031 210.063 76.5625 208.597 76.5625 205.375V186.625C76.5625 183.403 71.7031 181.938 67.1875 181.938C62.6719 181.938 57.8125 183.403 57.8125 186.625ZM73.4516 199.041C73.2422 199.509 71.0688 200.688 67.1875 200.688C63.3063 200.688 61.1328 199.509 60.9375 199.125V196.478C64.9811 197.926 69.4017 197.926 73.4453 196.478L73.4516 199.041ZM73.4516 192.791C73.2422 193.259 71.0688 194.438 67.1875 194.438C63.3063 194.438 61.1328 193.259 60.9375 192.875V190.228C64.9811 191.676 69.4017 191.676 73.4453 190.228L73.4516 192.791ZM67.1875 206.938C63.3063 206.938 61.1328 205.759 60.9375 205.375V202.728C64.9811 204.176 69.4017 204.176 73.4453 202.728V205.294C73.2422 205.759 71.0688 206.938 67.1875 206.938ZM67.1875 188.188C63.5203 188.188 61.3797 187.136 60.9766 186.625C61.3797 186.114 63.5203 185.063 67.1875 185.063C70.8547 185.063 72.9953 186.114 73.3984 186.625C72.9953 187.136 70.8547 188.188 67.1875 188.188Z" fill="#00A5D7"/>
<path d="M89.0625 222.85V200.4C90.022 200.064 90.8457 199.424 91.4083 198.577C91.971 197.73 92.242 196.723 92.1801 195.708C92.1182 194.693 91.7269 193.726 91.0655 192.954C90.4042 192.182 89.5089 191.647 88.5156 191.43C87.8801 188.433 86.6234 185.604 84.8266 183.123C84.707 182.954 84.5551 182.811 84.3795 182.701C84.2039 182.591 84.0082 182.517 83.8039 182.483C83.5995 182.45 83.3905 182.457 83.189 182.505C82.9875 182.553 82.7975 182.641 82.6302 182.763C82.4628 182.885 82.3213 183.039 82.2141 183.216C82.1068 183.393 82.0358 183.59 82.0052 183.795C81.9746 183.999 81.9851 184.208 82.0359 184.409C82.0868 184.61 82.1771 184.798 82.3016 184.964C83.7896 187.019 84.8472 189.353 85.4109 191.827C84.6294 192.211 83.9716 192.807 83.5122 193.547C83.0528 194.287 82.8104 195.141 82.8125 196.012C82.8146 196.883 83.0612 197.736 83.5242 198.473C83.9871 199.211 84.6479 199.804 85.4312 200.184C84.5096 204.33 82.1973 208.035 78.8785 210.685C75.5597 213.335 71.4342 214.769 67.1875 214.75C62.7029 214.729 58.3733 213.106 54.9792 210.175C51.5852 207.244 49.35 203.196 48.6766 198.762C49.4753 198.432 50.1667 197.886 50.6737 197.186C51.1806 196.486 51.4834 195.659 51.5482 194.797C51.613 193.935 51.4372 193.072 51.0406 192.304C50.644 191.536 50.0419 190.893 49.3016 190.447C50.1802 187.596 51.7276 184.998 53.8147 182.867C55.9019 180.736 58.4682 179.135 61.2997 178.197C64.1312 177.26 67.1459 177.013 70.0923 177.477C73.0387 177.941 75.8314 179.103 78.2375 180.866C78.4031 180.987 78.591 181.075 78.7904 181.123C78.9898 181.172 79.1969 181.181 79.3998 181.15C79.6027 181.119 79.7975 181.048 79.973 180.941C80.1485 180.835 80.3013 180.694 80.4227 180.529C80.544 180.363 80.6316 180.175 80.6804 179.976C80.7291 179.777 80.7381 179.569 80.7069 179.367C80.6756 179.164 80.6047 178.969 80.4981 178.793C80.3916 178.618 80.2515 178.465 80.0859 178.344C77.2582 176.272 73.9728 174.911 70.508 174.377C67.0432 173.844 63.5008 174.152 60.1805 175.278C56.8602 176.403 53.8598 178.311 51.4331 180.841C49.0064 183.371 47.2248 186.448 46.2391 189.812C45.6922 189.888 45.1631 190.061 44.6766 190.322L34.0078 180.628C34.3136 179.933 34.4464 179.173 34.3948 178.416C34.3433 177.658 34.1088 176.923 33.7116 176.276C33.3144 175.628 32.7662 175.086 32.1139 174.697C31.4616 174.307 30.7247 174.082 29.9662 174.039C29.2077 173.997 28.4501 174.138 27.7583 174.452C27.0666 174.766 26.4612 175.243 25.994 175.843C25.5268 176.442 25.2116 177.145 25.0755 177.892C24.9394 178.64 24.9864 179.409 25.2125 180.134L15.1562 187.453C14.3759 186.913 13.4491 186.624 12.5 186.625C12.0856 186.625 11.6882 186.79 11.3951 187.083C11.1021 187.376 10.9375 187.773 10.9375 188.187C10.9375 188.602 11.1021 188.999 11.3951 189.292C11.6882 189.585 12.0856 189.75 12.5 189.75C12.809 189.75 13.1111 189.842 13.3681 190.013C13.625 190.185 13.8253 190.429 13.9436 190.715C14.0618 191 14.0928 191.314 14.0325 191.617C13.9722 191.92 13.8234 192.199 13.6049 192.417C13.3863 192.636 13.1079 192.785 12.8048 192.845C12.5017 192.905 12.1876 192.874 11.9021 192.756C11.6165 192.638 11.3725 192.438 11.2008 192.181C11.0291 191.924 10.9375 191.622 10.9375 191.312C10.9375 190.898 10.7729 190.501 10.4799 190.208C10.1868 189.915 9.7894 189.75 9.375 189.75C8.9606 189.75 8.56317 189.915 8.27015 190.208C7.97712 190.501 7.8125 190.898 7.8125 191.312C7.81602 192.46 8.24109 193.566 9.00685 194.42C9.77261 195.274 10.8256 195.817 11.9656 195.945L14.6734 207.681C13.7345 208.272 13.0346 209.175 12.6974 210.231C12.3602 211.288 12.4076 212.43 12.831 213.455C13.2545 214.48 14.0268 215.322 15.0114 215.833C15.996 216.343 17.1294 216.489 18.2112 216.245C19.293 216 20.2534 215.381 20.9227 214.496C21.592 213.612 21.927 212.52 21.8684 211.412C21.8098 210.305 21.3615 209.253 20.6026 208.445C19.8438 207.636 18.8234 207.121 17.7219 206.992L15.0141 195.256C15.6783 194.834 16.2255 194.252 16.6054 193.562C16.9852 192.873 17.1854 192.099 17.1875 191.312C17.1812 190.864 17.1096 190.419 16.975 189.991L27.0312 182.672C27.7351 183.164 28.563 183.449 29.4206 183.494C30.2782 183.539 31.1313 183.342 31.8828 182.927L42.55 192.614C42.2941 193.22 42.1694 193.874 42.1842 194.532C42.1991 195.19 42.353 195.837 42.636 196.431C42.9189 197.025 43.3245 197.552 43.8259 197.979C44.3274 198.405 44.9133 198.72 45.5453 198.903C46.2614 204.142 48.8454 208.947 52.8218 212.433C56.7982 215.918 61.8996 217.851 67.1875 217.875C70.9673 217.89 74.6855 216.917 77.974 215.053C81.2626 213.19 84.0076 210.5 85.9375 207.25V222.845C85.2835 223.079 84.6897 223.456 84.1989 223.947C83.7082 224.439 83.3328 225.033 83.1 225.687H75V221.662C75 221.248 74.8354 220.851 74.5424 220.558C74.2493 220.265 73.8519 220.1 73.4375 220.1C73.0231 220.1 72.6257 220.265 72.3326 220.558C72.0396 220.851 71.875 221.248 71.875 221.662V225.687H63.775C63.4064 224.645 62.6811 223.766 61.7274 223.207C60.7736 222.647 59.6528 222.443 58.5629 222.63C57.4731 222.817 56.4844 223.383 55.7717 224.229C55.059 225.074 54.6681 226.144 54.6681 227.25C54.6681 228.356 55.059 229.426 55.7717 230.271C56.4844 231.117 57.4731 231.683 58.5629 231.87C59.6528 232.057 60.7736 231.853 61.7274 231.293C62.6811 230.734 63.4064 229.855 63.775 228.812H71.4141C70.7391 231.068 69.3556 233.045 67.4686 234.452C65.5816 235.86 63.2914 236.621 60.9375 236.625H59.375C57.7174 236.625 56.1277 237.283 54.9556 238.456C53.7835 239.628 53.125 241.217 53.125 242.875C53.1274 246.056 51.9167 249.119 49.7396 251.439C47.5625 253.758 44.5828 255.161 41.4078 255.36C38.2327 255.559 35.1011 254.54 32.6511 252.511C30.2012 250.481 28.6172 247.594 28.2219 244.437H32.8125C33.2269 244.437 33.6243 244.273 33.9174 243.98C34.2104 243.687 34.375 243.289 34.375 242.875C34.375 242.461 34.2104 242.063 33.9174 241.77C33.6243 241.477 33.2269 241.312 32.8125 241.312H26.5625C26.1481 241.312 25.7507 241.477 25.4576 241.77C25.1646 242.063 25 242.461 25 242.875C25.0045 247.018 26.6522 250.989 29.5815 253.919C32.5107 256.848 36.4824 258.495 40.625 258.5V266.312C40.625 266.727 40.7896 267.124 41.0826 267.417C41.3757 267.71 41.7731 267.875 42.1875 267.875C42.6019 267.875 42.9993 267.71 43.2924 267.417C43.5854 267.124 43.75 266.727 43.75 266.312V258.187C47.2771 257.463 50.4464 255.544 52.7235 252.754C55.0005 249.965 56.246 246.476 56.25 242.875C56.25 242.046 56.5792 241.251 57.1653 240.665C57.7513 240.079 58.5462 239.75 59.375 239.75H60.9375C64.1214 239.745 67.2095 238.66 69.6977 236.674C72.1859 234.687 73.9272 231.916 74.6375 228.812H83.1C83.3622 229.559 83.8092 230.226 84.3993 230.752C84.9895 231.279 85.7034 231.647 86.4745 231.822C87.2455 231.998 88.0484 231.975 88.8082 231.755C89.568 231.536 90.2598 231.128 90.8189 230.569C91.378 230.01 91.7863 229.318 92.0054 228.558C92.2246 227.798 92.2475 226.995 92.0721 226.224C91.8966 225.453 91.5285 224.739 91.0022 224.149C90.4759 223.559 89.8085 223.112 89.0625 222.85ZM18.75 211.625C18.75 211.934 18.6584 212.236 18.4867 212.493C18.315 212.75 18.071 212.95 17.7854 213.069C17.4999 213.187 17.1858 213.218 16.8827 213.157C16.5796 213.097 16.3012 212.948 16.0826 212.73C15.8641 212.511 15.7153 212.233 15.655 211.93C15.5947 211.627 15.6257 211.313 15.7439 211.027C15.8622 210.742 16.0625 210.497 16.3194 210.326C16.5764 210.154 16.8785 210.062 17.1875 210.062C17.6019 210.062 17.9993 210.227 18.2924 210.52C18.5854 210.813 18.75 211.211 18.75 211.625ZM28.125 178.812C28.125 178.503 28.2166 178.201 28.3883 177.944C28.56 177.687 28.804 177.487 29.0896 177.369C29.3751 177.251 29.6892 177.22 29.9923 177.28C30.2954 177.34 30.5738 177.489 30.7924 177.708C31.0109 177.926 31.1597 178.205 31.22 178.508C31.2803 178.811 31.2493 179.125 31.1311 179.41C31.0128 179.696 30.8125 179.94 30.5556 180.112C30.2986 180.283 29.9965 180.375 29.6875 180.375C29.2731 180.375 28.8757 180.21 28.5826 179.917C28.2896 179.624 28.125 179.227 28.125 178.812ZM46.875 192.875C47.184 192.875 47.4861 192.967 47.7431 193.138C48 193.31 48.2003 193.554 48.3186 193.84C48.4368 194.125 48.4678 194.439 48.4075 194.742C48.3472 195.045 48.1984 195.324 47.9799 195.542C47.7613 195.761 47.4829 195.91 47.1798 195.97C46.8767 196.03 46.5626 195.999 46.2771 195.881C45.9916 195.763 45.7475 195.563 45.5758 195.306C45.4041 195.049 45.3125 194.747 45.3125 194.437C45.3125 194.023 45.4771 193.626 45.7701 193.333C46.0632 193.04 46.4606 192.875 46.875 192.875ZM59.375 228.812C59.066 228.812 58.7639 228.721 58.5069 228.549C58.25 228.377 58.0497 228.133 57.9314 227.848C57.8132 227.562 57.7822 227.248 57.8425 226.945C57.9028 226.642 58.0516 226.364 58.2701 226.145C58.4887 225.927 58.7671 225.778 59.0702 225.717C59.3733 225.657 59.6874 225.688 59.9729 225.806C60.2585 225.925 60.5025 226.125 60.6742 226.382C60.8459 226.639 60.9375 226.941 60.9375 227.25C60.9375 227.664 60.7729 228.062 60.4799 228.355C60.1868 228.648 59.7894 228.812 59.375 228.812ZM87.5 197.562H87.4828H87.4719C87.0682 197.551 86.6846 197.384 86.4024 197.095C86.1202 196.806 85.9615 196.418 85.9598 196.015C85.9582 195.611 86.1138 195.222 86.3937 194.931C86.6736 194.64 87.0558 194.469 87.4594 194.455H87.4828L87.5 194.437C87.9144 194.437 88.3118 194.602 88.6049 194.895C88.8979 195.188 89.0625 195.586 89.0625 196C89.0625 196.414 88.8979 196.812 88.6049 197.105C88.3118 197.398 87.9144 197.562 87.5 197.562ZM87.5 228.812C87.191 228.812 86.8889 228.721 86.6319 228.549C86.375 228.377 86.1747 228.133 86.0564 227.848C85.9382 227.562 85.9072 227.248 85.9675 226.945C86.0278 226.642 86.1766 226.364 86.3951 226.145C86.6137 225.927 86.8921 225.778 87.1952 225.717C87.4983 225.657 87.8124 225.688 88.0979 225.806C88.3835 225.925 88.6275 226.125 88.7992 226.382C88.9709 226.639 89.0625 226.941 89.0625 227.25C89.0625 227.664 88.8979 228.062 88.6049 228.355C88.3118 228.648 87.9144 228.812 87.5 228.812Z" fill="#4C525E"/>
<path d="M73.4375 238.188C73.0231 238.188 72.6257 238.352 72.3326 238.645C72.0396 238.938 71.875 239.336 71.875 239.75V249.125H60.9375C60.5231 249.125 60.1257 249.29 59.8326 249.583C59.5396 249.876 59.375 250.273 59.375 250.688V263.188C59.375 263.602 59.5396 263.999 59.8326 264.292C60.1257 264.585 60.5231 264.75 60.9375 264.75H67.1875C67.6019 264.75 67.9993 264.585 68.2924 264.292C68.5854 263.999 68.75 263.602 68.75 263.188C68.75 262.773 68.5854 262.376 68.2924 262.083C67.9993 261.79 67.6019 261.625 67.1875 261.625H62.5V252.25H71.875V266.312C71.875 266.727 72.0396 267.124 72.3326 267.417C72.6257 267.71 73.0231 267.875 73.4375 267.875C73.8519 267.875 74.2493 267.71 74.5424 267.417C74.8354 267.124 75 266.727 75 266.312V239.75C75 239.336 74.8354 238.938 74.5424 238.645C74.2493 238.352 73.8519 238.188 73.4375 238.188Z" fill="#00A5D7"/>
<path d="M67.1875 258.5C68.0504 258.5 68.75 257.8 68.75 256.938C68.75 256.075 68.0504 255.375 67.1875 255.375C66.3246 255.375 65.625 256.075 65.625 256.938C65.625 257.8 66.3246 258.5 67.1875 258.5Z" fill="#00A5D7"/>
<path d="M421.099 215.839V187.452C421.099 183.894 418.205 181 414.647 181H360.454C356.896 181 354.002 183.894 354.002 187.452V224.871C354.002 228.428 356.896 231.323 360.454 231.323H373.357V236.484H370.776V239.065H373.19C372.097 240.178 371.206 241.488 370.571 242.935H354.002V250.677H359.163V253.258H354.002V261H377.228V259.915C378.81 260.609 380.554 261 382.389 261C389.504 261 395.292 255.212 395.292 248.097C395.292 244.582 393.875 241.394 391.588 239.065H399.163V261H434.002V215.839H421.099ZM359.163 258.419H356.583V255.839H359.163V258.419ZM359.163 248.097H356.583V245.516H359.163V248.097ZM364.325 258.419H361.744V255.839H364.325V258.419ZM364.325 253.258H361.744V250.677H364.325V253.258ZM364.325 248.097H361.744V245.516H364.325V248.097ZM369.486 258.419H366.905V255.839H369.486V258.419ZM369.486 253.258H366.905V250.677H369.486V253.258ZM369.486 248.097H366.905V245.516H369.486V248.097ZM374.647 258.419H372.066V255.839V255.805C372.801 256.786 373.669 257.657 374.647 258.395V258.419ZM392.712 248.097C392.712 253.788 388.081 258.419 382.389 258.419C376.697 258.419 372.066 253.788 372.066 248.097C372.066 242.405 376.697 237.774 382.389 237.774C388.081 237.774 392.712 242.405 392.712 248.097ZM399.163 236.484H387.976C386.283 235.666 384.393 235.194 382.389 235.194C380.386 235.194 378.495 235.666 376.802 236.484H375.937V231.323H399.163V236.484ZM399.163 228.742H360.454C358.319 228.742 356.583 227.005 356.583 224.871V223.581H399.163V228.742ZM399.163 221H356.583V187.452C356.583 185.317 358.319 183.581 360.454 183.581H414.647C416.781 183.581 418.518 185.317 418.518 187.452V215.839H399.163V221ZM431.421 258.419H401.744V228.742H431.421V258.419ZM431.421 226.161H401.744V218.419H431.421V226.161Z" fill="#4C525E"/>
<path d="M410.776 231.323H404.325V237.774H410.776V231.323ZM408.196 235.193H406.905V233.903H408.196V235.193Z" fill="#00A5D7"/>
<path d="M419.809 231.323H413.357V237.774H419.809V231.323ZM417.228 235.193H415.938V233.903H417.228V235.193Z" fill="#00A5D7"/>
<path d="M428.841 231.323H422.389V237.774H428.841V231.323ZM426.26 235.193H424.97V233.903H426.26V235.193Z" fill="#00A5D7"/>
<path d="M410.776 240.355H404.325V246.806H410.776V240.355ZM408.196 244.226H406.905V242.935H408.196V244.226Z" fill="#00A5D7"/>
<path d="M419.809 240.355H413.357V246.806H419.809V240.355ZM417.228 244.226H415.938V242.935H417.228V244.226Z" fill="#00A5D7"/>
<path d="M428.841 240.355H422.389V246.806H428.841V240.355ZM426.26 244.226H424.97V242.935H426.26V244.226Z" fill="#00A5D7"/>
<path d="M410.776 249.387H404.325V255.839H410.776V249.387ZM408.196 253.258H406.905V251.968H408.196V253.258Z" fill="#00A5D7"/>
<path d="M419.809 249.387H413.357V255.839H419.809V249.387ZM417.228 253.258H415.938V251.968H417.228V253.258Z" fill="#00A5D7"/>
<path d="M428.841 249.387H422.389V255.839H428.841V249.387ZM426.26 253.258H424.97V251.968H426.26V253.258Z" fill="#00A5D7"/>
<path d="M381.099 244.226H383.679C384.391 244.226 384.969 244.804 384.969 245.516H387.55C387.55 243.382 385.813 241.645 383.679 241.645V239.064H381.099V241.645C378.964 241.645 377.228 243.382 377.228 245.516C377.228 247.65 378.964 249.387 381.099 249.387H383.679C384.391 249.387 384.969 249.965 384.969 250.677C384.969 251.39 384.391 251.968 383.679 251.968H381.099C380.386 251.968 379.808 251.39 379.808 250.677H377.228C377.228 252.812 378.964 254.548 381.099 254.548V257.129H383.679V254.548C385.813 254.548 387.55 252.812 387.55 250.677C387.55 248.543 385.813 246.806 383.679 246.806H381.099C380.386 246.806 379.808 246.228 379.808 245.516C379.808 244.804 380.386 244.226 381.099 244.226Z" fill="#00A5D7"/>
<path d="M383.679 213.258H391.421V195.194H383.679V213.258ZM386.26 197.774H388.84V210.677H386.26V197.774Z" fill="#00A5D7"/>
<path d="M373.357 213.258H381.099V200.355H373.357V213.258ZM375.938 202.935H378.518V210.677H375.938V202.935Z" fill="#00A5D7"/>
<path d="M363.034 213.258H370.776V205.516H363.034V213.258ZM365.615 208.097H368.195V210.677H365.615V208.097Z" fill="#00A5D7"/>
<path d="M394.002 213.258H401.744V197.774H394.002V213.258ZM396.583 200.355H399.163V210.677H396.583V200.355Z" fill="#00A5D7"/>
<path d="M404.325 213.258H412.067V186.161H404.325V213.258ZM406.905 188.742H409.486V210.678H406.905V188.742Z" fill="#00A5D7"/>
<g clip-path="url(#clip0)">
<path d="M182.653 385.779C184.063 386.669 184.905 388.192 184.905 389.853V395.226C184.905 399.672 188.523 403.29 192.969 403.29C197.416 403.29 201.034 399.672 201.034 395.226V389.855C201.034 388.197 201.888 386.665 203.321 385.756C208.96 382.184 212.324 376.076 212.324 369.42C212.324 363.91 209.966 358.645 205.853 354.974C201.743 351.308 196.216 349.565 190.702 350.194C182.068 351.177 174.958 358.134 173.795 366.732C172.763 374.383 176.157 381.681 182.653 385.779ZM188.131 390.387H197.808V393.613H188.131V390.387ZM188.131 371.032H186.518C185.629 371.032 184.905 370.308 184.905 369.42C184.905 368.531 185.629 367.807 186.518 367.807C187.406 367.807 188.131 368.531 188.131 369.42V371.032ZM194.582 387.161H191.356V374.258H194.582V387.161ZM192.969 400.065C190.87 400.065 189.095 398.712 188.428 396.839H197.51C196.843 398.712 195.069 400.065 192.969 400.065ZM176.994 367.165C177.959 360.007 183.879 354.218 191.067 353.398C191.713 353.324 192.355 353.289 192.992 353.289C196.963 353.289 200.711 354.708 203.707 357.383C207.132 360.442 209.098 364.829 209.098 369.42C209.098 374.965 206.294 380.053 201.595 383.031C200.024 384.026 198.885 385.487 198.287 387.161H197.808V374.258H199.421C202.088 374.258 204.26 372.087 204.26 369.42C204.26 366.752 202.088 364.581 199.421 364.581C196.754 364.581 194.582 366.752 194.582 369.42V371.032H191.356V369.42C191.356 366.752 189.185 364.581 186.518 364.581C183.85 364.581 181.679 366.752 181.679 369.42C181.679 372.087 183.85 374.258 186.518 374.258H188.131V387.161H187.657C187.063 385.489 185.933 384.034 184.374 383.052C178.958 379.634 176.131 373.549 176.994 367.165ZM197.808 371.032V369.42C197.808 368.531 198.533 367.807 199.421 367.807C200.309 367.807 201.034 368.531 201.034 369.42C201.034 370.308 200.309 371.032 199.421 371.032H197.808Z" fill="#00A5D7"/>
<path d="M236.518 432.323H226.84V385.548H239.743V393.613H271.518L262.556 377.484L271.518 361.355H252.647V353.29H226.84C226.84 350.623 224.669 348.452 222.002 348.452C219.334 348.452 217.163 350.623 217.163 353.29V432.323H207.485C203.039 432.323 199.421 435.941 199.421 440.387V442H244.582V440.387C244.582 435.941 240.964 432.323 236.518 432.323ZM246.579 385.548L242.969 388.557V385.548H246.579ZM266.033 364.581L258.866 377.484L266.033 390.387H245.812L252.647 384.69V364.581H266.033ZM249.421 356.516V382.323H226.84V356.516H249.421ZM220.389 353.29C220.389 352.402 221.113 351.677 222.002 351.677C222.89 351.677 223.614 352.402 223.614 353.29V432.323H220.389V353.29ZM202.922 438.774C203.589 436.897 205.382 435.548 207.485 435.548H236.518C238.621 435.548 240.414 436.897 241.081 438.774H202.922Z" fill="#4C525E"/>
<path d="M191.356 342H194.582V346.839H191.356V342Z" fill="#4C525E"/>
<path d="M180.986 344.704L183.967 343.469L185.819 347.94L182.838 349.175L180.986 344.704Z" fill="#4C525E"/>
<path d="M172.441 351.171L174.722 348.89L178.143 352.312L175.862 354.593L172.441 351.171Z" fill="#4C525E"/>
<path d="M207.795 352.312L211.217 348.891L213.497 351.172L210.076 354.594L207.795 352.312Z" fill="#4C525E"/>
<path d="M200.119 347.942L201.971 343.472L204.952 344.707L203.099 349.177L200.119 347.942Z" fill="#4C525E"/>
<path d="M213.937 425.871H210.711V404.903H201.034V425.871H197.808V408.129H188.13V425.871H184.905V412.968H175.227V425.871H172.001V429.097H213.937V425.871ZM204.26 408.129H207.485V425.871H204.26V408.129ZM191.356 411.355H194.582V425.871H191.356V411.355ZM178.453 416.194H181.679V425.871H178.453V416.194Z" fill="#4C525E"/>
<path d="M236.518 408.129H239.743V411.355H236.518V408.129Z" fill="#4C525E"/>
<path d="M233.292 411.355H236.518V414.581H233.292V411.355Z" fill="#4C525E"/>
<path d="M236.518 414.581H239.743V417.806H236.518V414.581Z" fill="#4C525E"/>
<path d="M239.743 411.355H242.969V414.581H239.743V411.355Z" fill="#4C525E"/>
<path d="M255.873 421.032H259.098V424.258H255.873V421.032Z" fill="#4C525E"/>
<path d="M252.646 424.258H255.872V427.484H252.646V424.258Z" fill="#4C525E"/>
<path d="M255.873 427.484H259.098V430.71H255.873V427.484Z" fill="#4C525E"/>
<path d="M259.098 424.258H262.324V427.484H259.098V424.258Z" fill="#4C525E"/>
<path d="M265.55 396.839H268.776V400.064H265.55V396.839Z" fill="#4C525E"/>
<path d="M262.324 400.064H265.55V403.29H262.324V400.064Z" fill="#4C525E"/>
<path d="M265.55 403.29H268.776V406.516H265.55V403.29Z" fill="#4C525E"/>
<path d="M268.776 400.064H272.002V403.29H268.776V400.064Z" fill="#4C525E"/>
</g>
<g clip-path="url(#clip1)">
<path d="M233.882 49.1305C239.948 44.4549 244.027 37.2968 244.53 29.1323L241.311 28.9338C240.888 35.7808 237.603 41.8095 232.685 45.9355L231.579 42.9821L228.558 44.1146L229.984 47.9177C226.253 50.2552 221.857 51.6129 217.163 51.6129C211.484 51.6129 206.265 49.6322 202.132 46.3434L205.4 43.0759L203.119 40.7951L199.745 44.169C195.559 39.8178 192.969 33.919 192.969 27.4194C192.969 14.079 203.822 3.22581 217.163 3.22581C229.343 3.22581 239.665 12.326 241.169 24.3936L241.345 25.8065H264.32L258.066 31.0192L260.131 33.4969L271.295 24.1935L260.131 14.8902L258.066 17.3678L264.32 22.5806H244.156C241.85 9.60969 230.489 0 217.163 0C202.043 0 189.743 12.3 189.743 27.4194C189.743 34.8097 192.695 41.5126 197.466 46.4481L195.527 48.3871H191.356V38.7097H188.13V48.3871H184.905V41.9355H181.679V48.3871H178.453V38.7097H175.227V48.3871H172.001V51.6129H196.863L199.83 48.6454C203.367 51.5389 207.644 53.5471 212.322 54.3859V58.0645H206.93C204.777 58.0645 202.751 58.9033 201.229 60.4256L198.753 62.9032H188.13V59.6774H172.001V91.9355H188.13V88.7097H198.753L201.231 91.1873C202.753 92.7096 204.777 93.5484 206.932 93.5484H209.098V95.1613C209.098 97.8287 211.27 100 213.937 100H220.389C223.056 100 225.227 97.8287 225.227 95.1613V93.5484H226.84C229.508 93.5484 231.679 91.3771 231.679 88.7097C231.679 87.4661 231.194 86.3423 230.421 85.4839C231.195 84.6254 231.679 83.5016 231.679 82.2581C231.679 81.0145 231.194 79.8907 230.421 79.0323C231.195 78.1738 231.679 77.05 231.679 75.8064C231.679 74.5629 231.194 73.4391 230.421 72.5806C231.195 71.7222 231.679 70.5984 231.679 69.3548C231.679 66.6874 229.508 64.5161 226.84 64.5161H225.227V62.9032C225.227 60.8036 223.874 59.0293 222.001 58.3614V54.3922C225.281 53.8047 228.355 52.6257 231.129 50.9758L233.787 58.0645H272.001V54.8387H236.022L233.882 49.1305ZM184.905 88.7097H181.679V85.4839H178.453V88.7097H175.227V62.9032H178.453V66.129H181.679V62.9032H184.905V88.7097ZM203.511 88.9066L200.089 85.4839H188.13V66.129H200.089L203.511 62.7063C204.412 61.8062 205.658 61.2903 206.932 61.2903H220.389C221.277 61.2903 222.001 62.0149 222.001 62.9032V70.9677C222.001 71.8561 221.277 72.5806 220.389 72.5806C219.5 72.5806 218.776 71.8561 218.776 70.9677V64.5161H210.043L209.295 65.2643C206.656 67.9034 203.15 69.3548 199.421 69.3548V72.5806C202.937 72.5806 206.284 71.519 209.12 69.5691C209.172 70.7275 209.629 71.7742 210.356 72.5806C209.582 73.4391 209.098 74.5629 209.098 75.8064C209.098 77.05 209.583 78.1738 210.356 79.0323C209.582 79.8907 209.098 81.0145 209.098 82.2581C209.098 83.5016 209.583 84.6254 210.356 85.4839C209.582 86.3423 209.098 87.4661 209.098 88.7097C209.098 89.2775 209.214 89.8162 209.395 90.3226H206.93C205.658 90.3226 204.412 89.8067 203.511 88.9066ZM223.97 74.1936H226.84C227.729 74.1936 228.453 74.9181 228.453 75.8064C228.453 76.6948 227.729 77.4194 226.84 77.4194H213.937C213.049 77.4194 212.324 76.6948 212.324 75.8064C212.324 74.9181 213.049 74.1936 213.937 74.1936H216.808C217.694 75.1756 218.965 75.8064 220.389 75.8064C221.812 75.8064 223.082 75.1756 223.97 74.1936ZM228.453 82.2581C228.453 83.1464 227.729 83.871 226.84 83.871H213.937C213.049 83.871 212.324 83.1464 212.324 82.2581C212.324 81.3697 213.049 80.6452 213.937 80.6452H226.84C227.729 80.6452 228.453 81.3697 228.453 82.2581ZM215.55 70.9677H213.937C213.049 70.9677 212.324 70.2432 212.324 69.3548V67.7419H215.55V70.9677ZM222.001 95.1613C222.001 96.0496 221.277 96.7742 220.389 96.7742H213.937C213.049 96.7742 212.324 96.0496 212.324 95.1613V93.5484H222.001V95.1613ZM226.84 90.3226H213.937C213.049 90.3226 212.324 89.598 212.324 88.7097C212.324 87.8213 213.049 87.0968 213.937 87.0968H226.84C227.729 87.0968 228.453 87.8213 228.453 88.7097C228.453 89.598 227.729 90.3226 226.84 90.3226ZM226.84 67.7419C227.729 67.7419 228.453 68.4665 228.453 69.3548C228.453 70.2432 227.729 70.9677 226.84 70.9677H225.227V67.7419H226.84ZM218.776 58.0645H215.55V54.7568C216.087 54.7891 216.618 54.8387 217.163 54.8387C217.706 54.8387 218.239 54.7922 218.776 54.76V58.0645Z" fill="#4C525E"/>
<path d="M246.195 48.3872H265.55V51.613H246.195V48.3872Z" fill="#00A5D7"/>
<path d="M268.776 48.3872H272.002V51.613H268.776V48.3872Z" fill="#00A5D7"/>
<path d="M246.195 41.9355H272.002V45.1614H246.195V41.9355Z" fill="#00A5D7"/>
<path d="M218.775 41.9356V35.484H222.001V19.3549H218.775V12.9033H215.55V19.3549H212.324V35.484H215.55V41.9356H218.775ZM215.55 22.5807H218.775V32.2582H215.55V22.5807Z" fill="#00A5D7"/>
<path d="M231.679 38.7097V32.2581H234.904V16.1291H231.679V9.67749H228.453V16.1291H225.227V32.2581H228.453V38.7097H231.679ZM228.453 19.3549H231.679V29.0323H228.453V19.3549Z" fill="#00A5D7"/>
<path d="M205.873 38.7097V32.2581H209.098V16.1291H205.873V9.67749H202.647V16.1291H199.421V32.2581H202.647V38.7097H205.873ZM202.647 19.3549H205.873V29.0323H202.647V19.3549Z" fill="#00A5D7"/>
<path d="M178.453 69.355H181.679V82.2582H178.453V69.355Z" fill="#00A5D7"/>
</g>
<circle cx="222" cy="221" r="100.5" transform="rotate(90 222 221)" stroke="#DADADA" stroke-width="3"/>
<circle cx="222" cy="221" r="78.5" transform="rotate(90 222 221)" stroke="#00A5D7" stroke-width="3"/>
<g clip-path="url(#clip2)">
<path d="M206.301 215.52L192.004 229.817C190.984 229.141 189.764 228.742 188.452 228.742C184.895 228.742 182 231.636 182 235.194C182 238.751 184.895 241.645 188.452 241.645C192.01 241.645 194.904 238.751 194.904 235.194C194.904 233.881 194.505 232.662 193.829 231.641L208.126 217.345C209.146 218.021 210.366 218.419 211.678 218.419C212.571 218.419 213.422 218.236 214.197 217.906L224.015 230.996C223.567 231.875 223.291 232.853 223.291 233.903C223.291 237.461 226.185 240.355 229.742 240.355C233.3 240.355 236.194 237.461 236.194 233.903C236.194 232.601 235.8 231.394 235.135 230.378L252.786 213.903C253.628 214.305 254.557 214.548 255.549 214.548C259.106 214.548 262 211.654 262 208.097C262 204.539 259.106 201.645 255.549 201.645C251.991 201.645 249.097 204.539 249.097 208.097C249.097 209.716 249.718 211.179 250.706 212.314L233.32 228.541C232.295 227.854 231.065 227.452 229.742 227.452C228.199 227.452 226.799 228.019 225.687 228.927L216.317 216.432C217.434 215.272 218.13 213.702 218.13 211.968C218.13 208.41 215.235 205.516 211.678 205.516C208.12 205.516 205.226 208.41 205.226 211.968C205.226 213.28 205.625 214.499 206.301 215.52ZM188.452 239.065C186.318 239.065 184.581 237.328 184.581 235.194C184.581 233.059 186.318 231.323 188.452 231.323C190.586 231.323 192.323 233.059 192.323 235.194C192.323 237.328 190.586 239.065 188.452 239.065ZM255.549 204.226C257.683 204.226 259.42 205.963 259.42 208.097C259.42 210.231 257.683 211.968 255.549 211.968C253.415 211.968 251.678 210.231 251.678 208.097C251.678 205.963 253.415 204.226 255.549 204.226ZM229.742 230.032C231.877 230.032 233.613 231.769 233.613 233.903C233.613 236.038 231.877 237.774 229.742 237.774C227.608 237.774 225.871 236.038 225.871 233.903C225.871 231.769 227.608 230.032 229.742 230.032ZM211.678 208.097C213.812 208.097 215.549 209.834 215.549 211.968C215.549 214.102 213.812 215.839 211.678 215.839C209.544 215.839 207.807 214.102 207.807 211.968C207.807 209.834 209.544 208.097 211.678 208.097Z" fill="#4C525E"/>
<path d="M210.388 242.935L203.075 242.935L196.194 237.774L196.194 251.968C196.194 256.947 200.247 261 205.226 261L210.388 261C215.367 261 219.42 256.947 219.42 251.968C219.42 246.988 215.367 242.935 210.388 242.935ZM210.388 258.419L205.226 258.419C201.669 258.419 198.775 255.525 198.775 251.968L198.775 242.935L202.216 245.516L210.388 245.516C213.945 245.516 216.839 248.41 216.839 251.968C216.839 255.525 213.945 258.419 210.388 258.419Z" fill="#4C525E"/>
<path d="M202.646 255.839L212.968 255.839L212.968 253.258L202.646 253.258L202.646 255.839Z" fill="#4C525E"/>
<path d="M207.807 250.677L212.968 250.677L212.968 248.097L207.807 248.097L207.807 250.677Z" fill="#4C525E"/>
<path d="M202.645 250.677L205.226 250.677L205.226 248.097L202.645 248.097L202.645 250.677Z" fill="#4C525E"/>
<path d="M252.968 237.774L245.656 237.774L238.775 232.613L238.775 246.806C238.775 251.786 242.828 255.839 247.807 255.839L252.968 255.839C257.948 255.839 262 251.786 262 246.806C262 241.827 257.948 237.774 252.968 237.774ZM252.968 253.258L247.807 253.258C244.25 253.258 241.355 250.364 241.355 246.806L241.355 237.774L244.797 240.355L252.968 240.355C256.526 240.355 259.42 243.249 259.42 246.806C259.42 250.364 256.526 253.258 252.968 253.258Z" fill="#4C525E"/>
<path d="M245.226 250.677L255.549 250.677L255.549 248.097L245.226 248.097L245.226 250.677Z" fill="#4C525E"/>
<path d="M250.388 245.516L255.549 245.516L255.549 242.935L250.388 242.935L250.388 245.516Z" fill="#4C525E"/>
<path d="M245.226 245.516L247.807 245.516L247.807 242.935L245.226 242.935L245.226 245.516Z" fill="#4C525E"/>
<path d="M234.904 199.065L242.216 199.065L249.097 204.226L249.097 190.032C249.097 185.053 245.044 181 240.065 181L234.904 181C229.924 181 225.871 185.053 225.871 190.032C225.871 195.012 229.924 199.065 234.904 199.065ZM234.904 183.581L240.065 183.581C243.622 183.581 246.517 186.475 246.517 190.032L246.517 199.065L243.075 196.484L234.904 196.484C231.346 196.484 228.452 193.59 228.452 190.032C228.452 186.475 231.346 183.581 234.904 183.581Z" fill="#4C525E"/>
<path d="M232.323 188.742L242.646 188.742L242.646 186.161L232.323 186.161L232.323 188.742Z" fill="#4C525E"/>
<path d="M232.323 193.903L237.484 193.903L237.484 191.323L232.323 191.323L232.323 193.903Z" fill="#4C525E"/>
<path d="M240.065 193.903L242.646 193.903L242.646 191.323L240.065 191.323L240.065 193.903Z" fill="#4C525E"/>
<path d="M191.033 201.645L198.345 201.645L205.226 206.806L205.226 192.613C205.226 187.633 201.173 183.581 196.194 183.581L191.033 183.581C186.053 183.581 182 187.633 182 192.613C182 197.592 186.053 201.645 191.033 201.645ZM191.033 186.161L196.194 186.161C199.751 186.161 202.645 189.055 202.645 192.613L202.645 201.645L199.204 199.064L191.033 199.064C187.475 199.064 184.581 196.17 184.581 192.613C184.581 189.055 187.475 186.161 191.033 186.161Z" fill="#4C525E"/>
<path d="M188.452 191.323L198.775 191.323L198.775 188.742L188.452 188.742L188.452 191.323Z" fill="#4C525E"/>
<path d="M188.452 196.484L193.613 196.484L193.613 193.903L188.452 193.903L188.452 196.484Z" fill="#4C525E"/>
<path d="M196.194 196.484L198.775 196.484L198.775 193.903L196.194 193.903L196.194 196.484Z" fill="#4C525E"/>
</g>
<path d="M29.7094 155.149C39.9256 130.479 55.5933 108.412 75.5513 90.5831C95.5094 72.7542 119.246 59.6208 145.002 52.1562" stroke="#00A5D7" stroke-width="3" stroke-miterlimit="10"/>
<path d="M414.296 155.149C404.08 130.479 388.412 108.412 368.454 90.5831C348.496 72.7542 324.759 59.6208 299.003 52.1562" stroke="#00A5D7" stroke-width="3" stroke-miterlimit="10"/>
<path d="M29.7094 288.851C39.9256 313.521 55.5933 335.588 75.5513 353.417C95.5094 371.246 119.246 384.379 145.002 391.844" stroke="#00A5D7" stroke-width="3" stroke-miterlimit="10"/>
<path d="M414.296 288.851C404.08 313.521 388.413 335.588 368.455 353.417C348.496 371.246 324.76 384.379 299.004 391.844" stroke="#00A5D7" stroke-width="3" stroke-miterlimit="10"/>
<defs>
<clipPath id="clip0">
<rect width="100" height="100" fill="white" transform="translate(172.001 342)"/>
</clipPath>
<clipPath id="clip1">
<rect width="100" height="100" fill="white" transform="translate(172.001)"/>
</clipPath>
<clipPath id="clip2">
<rect width="80" height="80" fill="white" transform="translate(262 261) rotate(-180)"/>
</clipPath>
</defs>
</svg>
