<svg width="80" height="80" viewBox="0 0 80 80" fill="none" xmlns="http://www.w3.org/2000/svg">
<path d="M18.75 1.25H21.25V6.25H18.75V1.25Z" fill="#4C525E"/>
<path d="M3.96094 6.94116L6.04068 5.55383L8.54203 9.30361L6.46229 10.6909L3.96094 6.94116Z" fill="#4C525E"/>
<path d="M31.4692 9.31079L33.9706 5.56102L36.0503 6.94835L33.549 10.6981L31.4692 9.31079Z" fill="#4C525E"/>
<path d="M75.6362 43.0525C74.9362 39.7188 73.6462 36.5988 71.795 33.7575L73.25 30.8212L66.6775 24.25L63.74 25.705C60.9013 23.8537 57.78 22.5625 54.4463 21.8637L53.3975 18.75H44.1025L43.0513 21.8637C41.4675 22.1975 39.9175 22.6712 38.42 23.2775C36.835 15.015 29.5625 8.75 20.8438 8.75H19.1562C9.2825 8.75 1.25 16.7825 1.25 26.6562C1.25 30.7063 2.64375 34.6787 5.17375 37.8438L8.40125 41.8775C9.97625 43.8462 10.94 46.25 11.1837 48.75H10C7.9325 48.75 6.25 50.4325 6.25 52.5C6.25 54.2287 7.43125 55.6737 9.025 56.105C8.85125 56.5375 8.75 57.0062 8.75 57.5C8.75 59.1275 9.79875 60.5025 11.25 61.02V62.5C11.25 67.3237 15.1763 71.25 20 71.25C22.4312 71.25 24.6313 70.2513 26.2188 68.6462L30.8225 73.25L33.76 71.795C36.5987 73.6462 39.72 74.9375 43.0537 75.6362L44.1025 78.75H53.3975L54.4475 75.6362C57.7812 74.9362 60.9012 73.6462 63.7412 71.795L66.6787 73.25L73.2513 66.6775L71.7962 63.7412C73.6475 60.9012 74.9388 57.78 75.6375 54.4463L78.75 53.3975V44.1025L75.6362 43.0525ZM12.5 58.75C11.81 58.75 11.25 58.19 11.25 57.5C11.25 56.81 11.81 56.25 12.5 56.25H27.5C28.19 56.25 28.75 56.81 28.75 57.5C28.75 58.19 28.19 58.75 27.5 58.75H12.5ZM30.975 56.105C32.5688 55.6725 33.75 54.2287 33.75 52.5C33.75 50.4325 32.0675 48.75 30 48.75H28.8162C29.06 46.25 30.0238 43.8462 31.6 41.8775L34.8262 37.8425C35.355 37.1812 35.8225 36.4762 36.25 35.7512V47.5H48.75V36.7675L50.8838 34.6338L49.1162 32.8662L46.9825 35H36.6712C37.185 34.0225 37.6037 33 37.93 31.9462C41.1675 29.8575 44.9062 28.75 48.75 28.75C59.7775 28.75 68.75 37.7225 68.75 48.75C68.75 59.7775 59.7775 68.75 48.75 68.75C41.3675 68.75 34.6825 64.7325 31.175 58.2412C31.2238 58.0012 31.25 57.7537 31.25 57.5C31.25 57.0062 31.1488 56.5375 30.975 56.105ZM42.1338 43.3838L46.25 39.2675V45H38.75V37.5H44.4825L40.3662 41.6162L42.1338 43.3838ZM3.75 26.6562C3.75 18.1613 10.6613 11.25 19.1562 11.25H20.8438C29.3387 11.25 36.25 18.1613 36.25 26.6562C36.25 30.14 35.0513 33.5588 32.8737 36.2812L31.2162 38.355C30.8225 38.185 30.4137 38.05 29.9875 37.9638L25.565 37.0762C24.9375 36.8962 24.4225 36.4762 24.1012 35.9287C24.7863 35.3275 25.35 34.595 25.7212 33.75H26.25C28.3175 33.75 30 32.0675 30 30C30 29.4525 29.8763 28.9363 29.6638 28.4663L30.4775 26.8388C30.9825 25.8275 31.25 24.6962 31.25 23.5675C31.25 19.5325 27.9675 16.25 23.9325 16.25H16.0687C12.0325 16.25 8.75 19.5325 8.75 23.5675C8.75 24.695 9.0175 25.8275 9.5225 26.84L10.335 28.4663C10.1237 28.9363 10 29.4525 10 30C10 32.0675 11.6825 33.75 13.75 33.75H14.28C14.6512 34.5963 15.2162 35.3287 15.9012 35.93C15.5862 36.475 15.09 36.89 14.5337 37.0513L10.0112 37.9625C9.58625 38.0488 9.17875 38.1838 8.785 38.3538L7.12625 36.2812C4.94875 33.56 3.75 30.14 3.75 26.6562ZM13.75 31.25C13.06 31.25 12.5 30.69 12.5 30C12.5 29.31 13.06 28.75 13.75 28.75V31.25ZM15 25H13.75V26.25C13.1938 26.25 12.6713 26.3787 12.1962 26.5975L11.76 25.7238C11.4263 25.0563 11.25 24.31 11.25 23.5675C11.25 20.9113 13.4113 18.75 16.0675 18.75H23.9313C26.5888 18.75 28.75 20.9113 28.75 23.5675C28.75 24.31 28.5738 25.055 28.2413 25.7225L27.8037 26.5963C27.3288 26.3787 26.8062 26.25 26.25 26.25V25H25C23.7763 25 22.6162 24.5325 21.7337 23.6825L20 22.015L18.2663 23.6825C17.3837 24.5325 16.2238 25 15 25ZM26.25 28.75C26.94 28.75 27.5 29.31 27.5 30C27.5 30.69 26.94 31.25 26.25 31.25V28.75ZM16.25 31.25V27.3925C17.6537 27.1475 18.955 26.49 20 25.485C21.0462 26.4913 22.3463 27.1475 23.75 27.3925V31.25C23.75 33.3175 22.0675 35 20 35C17.9325 35 16.25 33.3175 16.25 31.25ZM18.075 37.165C18.685 37.365 19.3237 37.5 20 37.5C20.6763 37.5 21.3162 37.365 21.9263 37.165C22.08 37.4288 22.2587 37.675 22.4587 37.9062C22.2637 39.09 21.2388 40 20 40C18.7638 40 17.74 39.095 17.5413 37.9137C17.7412 37.6812 17.9212 37.4325 18.075 37.165ZM10.4412 40.435C10.4637 40.43 10.4838 40.4188 10.5075 40.415L15.125 39.4788C15.2113 39.4538 15.2925 39.4175 15.3762 39.3875C16.1225 41.2113 17.9112 42.5 20 42.5C22.0875 42.5 23.875 41.2137 24.6225 39.3787C24.7388 39.4212 24.8525 39.4688 24.9725 39.5037L29.4913 40.415C29.515 40.42 29.5362 40.4312 29.5588 40.4362C27.6838 42.825 26.5487 45.7325 26.3025 48.75H13.6962C13.45 45.7313 12.315 42.8237 10.4412 40.435ZM10 51.25H30C30.69 51.25 31.25 51.81 31.25 52.5C31.25 53.19 30.69 53.75 30 53.75H27.5H12.5H10C9.31 53.75 8.75 53.19 8.75 52.5C8.75 51.81 9.31 51.25 10 51.25ZM20 68.75C16.5538 68.75 13.75 65.9463 13.75 62.5V61.25H26.25V62.5C26.25 65.9463 23.4463 68.75 20 68.75ZM76.25 51.6025L73.4525 52.545L73.3213 53.27C72.6813 56.7713 71.3375 60.0225 69.325 62.935L68.9075 63.54L70.2138 66.1775L66.18 70.2113L63.5425 68.905L62.9375 69.3225C60.025 71.335 56.7725 72.68 53.2725 73.3187L52.5475 73.45L51.6025 76.25H45.8975L44.955 73.4525L44.23 73.3213C40.7287 72.6813 37.4775 71.3375 34.565 69.325L33.96 68.9075L31.3225 70.2138L27.7213 66.6125C28.375 65.3838 28.75 63.985 28.75 62.5V61.02C29.065 60.9075 29.365 60.765 29.635 60.5762C33.7238 67.2012 40.8862 71.25 48.75 71.25C61.1562 71.25 71.25 61.1562 71.25 48.75C71.25 36.3438 61.1562 26.25 48.75 26.25C45.1925 26.25 41.72 27.1025 38.62 28.6812C38.6963 28.01 38.75 27.335 38.75 26.6562C38.75 26.395 38.7225 26.14 38.7113 25.8813C40.48 25.1063 42.3287 24.5275 44.23 24.1788L44.955 24.0475L45.8975 21.25H51.6025L52.545 24.0475L53.27 24.1788C56.7713 24.8188 60.0225 26.1625 62.935 28.175L63.54 28.5925L66.1775 27.2863L70.2113 31.32L68.905 33.9575L69.3225 34.5625C71.335 37.475 72.68 40.7275 73.3187 44.2275L73.45 44.9525L76.25 45.8975V51.6025Z" fill="#4C525E"/>
<path d="M48.75 51.7675L50.8838 49.6337L49.1162 47.8662L46.9825 50H36.25V62.5H48.75V51.7675ZM38.75 60V52.5H44.4825L40.3662 56.6162L42.1338 58.3837L46.25 54.2675V60H38.75Z" fill="#00A5D7"/>
<path d="M51.25 60H61.25V62.5H51.25V60Z" fill="#00A5D7"/>
<path d="M51.25 55H61.25V57.5H51.25V55Z" fill="#00A5D7"/>
<path d="M51.25 50H61.25V52.5H51.25V50Z" fill="#00A5D7"/>
<path d="M51.25 45H61.25V47.5H51.25V45Z" fill="#00A5D7"/>
<path d="M51.25 40H61.25V42.5H51.25V40Z" fill="#00A5D7"/>
<path d="M51.25 35H61.25V37.5H51.25V35Z" fill="#00A5D7"/>
</svg>
