<?xml version="1.0" encoding="UTF-8"?>
<svg width="68px" height="68px" viewBox="0 0 68 68" version="1.1" xmlns="http://www.w3.org/2000/svg" xmlns:xlink="http://www.w3.org/1999/xlink">
    <!-- Generator: Sketch 61.2 (89653) - https://sketch.com -->
    <title>favicon</title>
    <desc>Created with Sketch.</desc>
    <g id="Page-1" stroke="none" stroke-width="1" fill="none" fill-rule="evenodd">
        <g id="favicon" fill="#00A5D7" fill-rule="nonzero">
            <path d="M67.0555556,32 C66.546277,30.6917875 65.3413784,29.8386376 64.005,29.8399984 L3.30555556,29.8399984 C1.47994763,29.8399984 0,31.4070034 0,33.3399984 C0,35.2729966 1.47994763,36.8399984 3.30555556,36.8399984 L56.0055556,36.8399984 L35.1144444,59 L26.1705556,49.53 L35.7,49.53 L42.3111111,42.53 L18.19,42.53 C16.8416305,42.5174982 15.6212525,43.3734343 15.1061704,44.6929044 C14.5910884,46.0123745 14.8845681,47.530846 15.8477778,48.53 L32.7722222,66.4 C33.3909073,67.0589161 34.2322027,67.4294157 35.1097222,67.4294157 C35.9872418,67.4294157 36.8285372,67.0589161 37.4472222,66.4 L66.3283333,35.83 C67.2884923,34.831408 67.5766289,33.3139027 67.0555556,32 Z" id="Path"></path>
            <polygon id="Path" points="29.4288889 15.81 18.9266667 4.69 33.8583333 0"></polygon>
            <polygon id="Path" points="14.1383333 25.82 27.0772222 12.07 22.4116667 7.13 4.79777778 25.82"></polygon>
        </g>
    </g>
</svg>