<svg width="61" height="18" viewBox="0 0 61 18" fill="none" xmlns="http://www.w3.org/2000/svg">
<circle cx="7.5" cy="1.5" r="1.5" fill="#00A5D7"/>
<circle cx="12.5" cy="1.5" r="1.5" fill="#00A5D7"/>
<circle cx="17.5" cy="1.5" r="1.5" fill="#00A5D7"/>
<circle cx="22.5" cy="1.5" r="1.5" fill="#00A5D7"/>
<circle cx="27.5" cy="1.5" r="1.5" fill="#00A5D7"/>
<circle cx="32.5" cy="1.5" r="1.5" fill="#00A5D7"/>
<circle cx="37.5" cy="1.5" r="1.5" fill="#00A5D7"/>
<circle cx="42.5" cy="1.5" r="1.5" fill="#00A5D7"/>
<circle cx="47.5" cy="1.5" r="1.5" fill="#00A5D7"/>
<circle cx="52.5" cy="1.5" r="1.5" fill="#00A5D7"/>
<circle cx="57.5" cy="1.5" r="1.5" fill="#00A5D7"/>
<circle cx="1.5" cy="6.5" r="1.5" fill="#00A5D7"/>
<circle cx="6.5" cy="6.5" r="1.5" fill="#00A5D7"/>
<circle cx="11.5" cy="6.5" r="1.5" fill="#00A5D7"/>
<circle cx="16.5" cy="6.5" r="1.5" fill="#00A5D7"/>
<circle cx="21.5" cy="6.5" r="1.5" fill="#00A5D7"/>
<circle cx="26.5" cy="6.5" r="1.5" fill="#00A5D7"/>
<circle cx="31.5" cy="6.5" r="1.5" fill="#00A5D7"/>
<circle cx="36.5" cy="6.5" r="1.5" fill="#00A5D7"/>
<circle cx="41.5" cy="6.5" r="1.5" fill="#00A5D7"/>
<circle cx="46.5" cy="6.5" r="1.5" fill="#00A5D7"/>
<circle cx="51.5" cy="6.5" r="1.5" fill="#00A5D7"/>
<circle cx="9.5" cy="11.5" r="1.5" fill="#00A5D7"/>
<circle cx="14.5" cy="11.5" r="1.5" fill="#00A5D7"/>
<circle cx="19.5" cy="11.5" r="1.5" fill="#00A5D7"/>
<circle cx="24.5" cy="11.5" r="1.5" fill="#00A5D7"/>
<circle cx="29.5" cy="11.5" r="1.5" fill="#00A5D7"/>
<circle cx="34.5" cy="11.5" r="1.5" fill="#00A5D7"/>
<circle cx="39.5" cy="11.5" r="1.5" fill="#00A5D7"/>
<circle cx="44.5" cy="11.5" r="1.5" fill="#00A5D7"/>
<circle cx="49.5" cy="11.5" r="1.5" fill="#00A5D7"/>
<circle cx="54.5" cy="11.5" r="1.5" fill="#00A5D7"/>
<circle cx="59.5" cy="11.5" r="1.5" fill="#00A5D7"/>
<circle cx="4.5" cy="16.5" r="1.5" fill="#00A5D7"/>
<circle cx="9.5" cy="16.5" r="1.5" fill="#00A5D7"/>
<circle cx="14.5" cy="16.5" r="1.5" fill="#00A5D7"/>
<circle cx="19.5" cy="16.5" r="1.5" fill="#00A5D7"/>
<circle cx="24.5" cy="16.5" r="1.5" fill="#00A5D7"/>
<circle cx="29.5" cy="16.5" r="1.5" fill="#00A5D7"/>
<circle cx="34.5" cy="16.5" r="1.5" fill="#00A5D7"/>
<circle cx="39.5" cy="16.5" r="1.5" fill="#00A5D7"/>
<circle cx="44.5" cy="16.5" r="1.5" fill="#00A5D7"/>
<circle cx="49.5" cy="16.5" r="1.5" fill="#00A5D7"/>
<circle cx="54.5" cy="16.5" r="1.5" fill="#00A5D7"/>
</svg>
