<svg width="80" height="80" viewBox="0 0 80 80" fill="none" xmlns="http://www.w3.org/2000/svg">
<g clip-path="url(#clip0)">
<path d="M7.74219 64.5163C7.74219 68.7861 11.215 72.2583 15.4841 72.2583C19.7539 72.2583 23.2261 68.7861 23.2261 64.5163C23.2261 60.2466 19.7539 56.7744 15.4841 56.7744C11.215 56.7744 7.74219 60.2466 7.74219 64.5163ZM15.4841 59.3551C18.3306 59.3551 20.6454 61.6698 20.6454 64.5163C20.6454 67.3629 18.3306 69.6776 15.4841 69.6776C12.6382 69.6776 10.3228 67.3629 10.3228 64.5163C10.3228 61.6698 12.6382 59.3551 15.4841 59.3551Z" fill="#00A5D7"/>
<path d="M74.8387 64.5165H61.9356C60.5123 64.5165 59.3549 63.3591 59.3549 61.9358V59.2752C63.7835 58.7806 67.5605 55.7823 69.026 51.5484C70.8556 51.2416 72.2581 49.6583 72.2581 47.7424C72.2581 46.7476 71.87 45.8479 71.2519 45.1618C71.8712 44.475 72.2581 43.576 72.2581 42.5811C72.2581 41.4174 71.732 40.3848 70.9161 39.6741C76.5644 35.5732 80 28.9692 80 21.9361C80 15.8833 77.5876 10.2458 73.2069 6.06485C68.8288 1.88708 63.0803 -0.252524 57.0144 0.0240615C50.7039 0.319548 45.0273 3.39035 41.1891 8.02111C39.03 6.57203 36.2843 6.08312 33.7761 6.76419C31.8998 2.67021 27.8109 0.000750085 23.2261 0.000750085C16.8225 0.000750085 11.6133 5.20989 11.6133 11.6136C11.6133 12.0804 11.6461 12.5448 11.7015 13.0072C8.00321 13.5875 5.16174 16.7862 5.16174 20.6458C5.16174 24.9155 8.6345 28.3877 12.9036 28.3877H37.1014C38.4844 32.8855 41.3025 36.8497 45.2119 39.6754C44.3979 40.3848 43.8712 41.4187 43.8712 42.5811C43.8712 43.576 44.2599 44.475 44.878 45.1618C44.2586 45.8479 43.8712 46.7476 43.8712 47.7424C43.8712 49.6583 45.2743 51.2416 47.1039 51.5484C48.5693 55.7823 52.3464 58.7806 56.7743 59.2752V61.9358C56.7743 64.7823 59.0897 67.0971 61.9356 67.0971H74.8387C76.262 67.0971 77.4193 68.2545 77.4193 69.6777C77.4193 71.101 76.262 72.2584 74.8387 72.2584H41.2905C39.8673 72.2584 38.7099 71.101 38.7099 69.6777V46.4521C38.7099 43.6056 36.3952 41.2908 33.5487 41.2908H19.3552C16.5093 41.2908 14.1939 43.6056 14.1939 46.4521V49.0327H11.9183L10.9915 52.4198C10.696 52.5307 10.4005 52.6548 10.1075 52.789L7.05626 51.0457L2.01345 56.0878L3.75676 59.1397C3.62257 59.4327 3.49908 59.7269 3.38756 60.0237L0.000488281 60.9498V68.0812L3.38756 69.008C3.49908 69.3035 3.62257 69.599 3.75676 69.8919L2.01345 72.9432L7.05626 77.986L10.1075 76.2427C10.4005 76.3769 10.6947 76.501 10.9915 76.6119L11.9183 80.0002H19.0496L19.9764 76.6132C20.2713 76.5023 20.5668 76.3782 20.8597 76.244L23.9116 77.9873L28.9538 72.9445L27.2111 69.8932C27.3453 69.6002 27.4688 69.306 27.5797 69.0093L30.968 68.0825V60.9511L27.581 60.0249C27.4701 59.7295 27.3466 59.434 27.2124 59.141L28.9557 56.0891L23.9129 51.0469L20.861 52.7902C20.5686 52.656 20.2744 52.5319 19.9777 52.421L19.0509 49.0327H16.7746V46.4521C16.7746 45.0288 17.9319 43.8714 19.3552 43.8714H33.5487C34.9719 43.8714 36.1293 45.0288 36.1293 46.4521V69.6777C36.1293 72.5242 38.4447 74.839 41.2905 74.839H74.8387C77.6852 74.839 80 72.5242 80 69.6777C80 66.8312 77.6852 64.5165 74.8387 64.5165ZM46.4518 42.5811C46.4518 41.8686 47.0302 41.2908 47.7421 41.2908H68.3871C69.0997 41.2908 69.6775 41.8686 69.6775 42.5811C69.6775 43.2931 69.0997 43.8714 68.3871 43.8714H47.7421C47.0302 43.8714 46.4518 43.2931 46.4518 42.5811ZM55.3139 15.4845L58.0646 11.359L60.816 15.4845H55.3139ZM54.1937 18.0652H56.7743V23.2264H59.3549V18.0652H61.9356V38.7102H59.3549V25.807H56.7743V38.7102H54.1937V18.0652ZM12.9036 25.807C10.0578 25.807 7.74237 23.4923 7.74237 20.6458C7.74237 17.7993 10.0578 15.4845 12.9036 15.4845C15.7501 15.4845 18.0649 17.7993 18.0649 20.6458H20.6455C20.6455 16.8612 17.9143 13.7078 14.3193 13.0394C14.2443 12.5693 14.1939 12.0937 14.1939 11.6136C14.1939 6.6344 18.247 2.58138 23.2261 2.58138C27.1349 2.58138 30.5824 5.07947 31.8028 8.79543L32.247 10.1437L33.5474 9.57478C35.5383 8.70407 37.8776 8.9397 39.6701 10.1078C37.6445 13.2227 36.3668 16.8549 36.1608 20.7434C36.0688 22.4666 36.1891 24.1608 36.4834 25.8083H12.9036V25.807ZM38.7383 20.8795C39.2587 11.0894 47.3395 3.06021 57.1359 2.60343C62.4856 2.33755 67.5618 4.24467 71.4245 7.93354C75.2917 11.6211 77.4193 16.594 77.4193 21.9361C77.4193 28.8054 73.7109 35.221 67.7407 38.6806L67.6891 38.7102H64.5162V16.3836L58.0646 6.70623L51.6131 16.3836V38.7102H48.4402L48.3885 38.6806C42.0485 35.0068 38.3502 28.1861 38.7383 20.8795ZM47.7421 46.4521H68.3871C69.0997 46.4521 69.6775 47.0298 69.6775 47.7424C69.6775 48.4543 69.0997 49.0327 68.3871 49.0327H47.7421C47.0302 49.0327 46.4518 48.4543 46.4518 47.7424C46.4518 47.0298 47.0302 46.4521 47.7421 46.4521ZM49.9296 51.6133H66.2003C64.7279 54.715 61.5953 56.7746 58.0646 56.7746C54.5345 56.7746 51.4001 54.715 49.9296 51.6133ZM17.8551 54.4428L18.5311 54.6507C19.1271 54.8353 19.7219 55.0829 20.299 55.3885L20.9246 55.7218L23.4794 54.2633L25.7349 56.5188L24.2764 59.0736L24.6097 59.6998C24.9153 60.2763 25.1648 60.8711 25.3475 61.4671L25.5554 62.1437L28.3874 62.9212V66.1124L25.5579 66.8879L25.35 67.5639C25.166 68.16 24.9178 68.7553 24.6122 69.3318L24.2796 69.9575L25.7375 72.5123L23.4819 74.7678L20.9271 73.3099L20.3015 73.6425C19.7244 73.9487 19.1296 74.1976 18.5336 74.3809L17.8576 74.5889L17.0795 77.4196H13.8884L13.1128 74.5901L12.4368 74.3822C11.8408 74.1976 11.246 73.95 10.6689 73.6438L10.0433 73.3111L7.48847 74.7691L5.23294 72.5135L6.69084 69.9587L6.35818 69.3331C6.05262 68.7566 5.80312 68.1612 5.61978 67.5652L5.4125 66.8892L2.58112 66.1111V62.92L5.41124 62.145L5.61852 61.4684C5.80312 60.8723 6.05073 60.2776 6.35692 59.7011L6.68958 59.0748L5.23168 56.52L7.48721 54.2645L10.042 55.723L10.6676 55.3898C11.2447 55.0842 11.8395 54.8353 12.4355 54.652L13.1115 54.4441L13.8896 51.6133H17.0808L17.8551 54.4428Z" fill="#4C525E"/>
<path d="M69.9257 33.7965C76.4649 27.2573 76.4649 16.6147 69.9257 10.0742L68.1011 11.8982C73.6353 17.4325 73.6353 26.4376 68.1011 31.9719L69.9257 33.7965Z" fill="#00A5D7"/>
</g>
<defs>
<clipPath id="clip0">
<rect width="80" height="80" fill="white"/>
</clipPath>
</defs>
</svg>
