<svg width="15" height="18" viewBox="0 0 15 18" fill="none" xmlns="http://www.w3.org/2000/svg">
<path fill-rule="evenodd" clip-rule="evenodd" d="M7.36364 0C3.33946 0.101163 0.101163 3.33946 0 7.36364C0.0682738 8.55344 0.396423 9.71383 0.961363 10.7632L1.01864 10.8655C5.46954 18 6.79909 18 7.36364 18C8.24727 18 9.20045 17.3782 11.4545 14.2077C12.6368 12.5714 13.6514 10.935 13.6923 10.8614L13.7495 10.7632C14.3202 9.71516 14.6539 8.55469 14.7273 7.36364C14.6261 3.33946 11.3878 0.101163 7.36364 0ZM12.6818 10.2273C12.6818 10.2273 8.59092 16.7727 7.36365 16.7727C6.13637 16.7727 2.04546 10.2273 2.04546 10.2273C1.56987 9.34271 1.29079 8.36593 1.22728 7.36363C1.22728 3.97461 3.97463 1.22727 7.36365 1.22727C10.7527 1.22727 13.5 3.97461 13.5 7.36363C13.4327 8.36685 13.1494 9.34369 12.6696 10.2273H12.6818Z" fill="#2F3644"/>
<path fill-rule="evenodd" clip-rule="evenodd" d="M7.36361 3.68182C5.55613 3.68182 4.09088 5.14707 4.09088 6.95455C4.09088 8.76203 5.55613 10.2273 7.36361 10.2273C9.17109 10.2273 10.6363 8.76203 10.6363 6.95455C10.6363 5.14707 9.17109 3.68182 7.36361 3.68182ZM7.36361 9C6.23393 9 5.31815 8.08422 5.31815 6.95454C5.31815 5.82487 6.23393 4.90909 7.36361 4.90909C8.49328 4.90909 9.40906 5.82487 9.40906 6.95454C9.40906 8.08422 8.49328 9 7.36361 9Z" fill="#2F3644"/>
</svg>
