<svg width="16" height="13" viewBox="0 0 16 13" fill="none" xmlns="http://www.w3.org/2000/svg">
<path fill-rule="evenodd" clip-rule="evenodd" d="M14.9091 0H1.09091C0.488417 0 0 0.488417 0 1.09091V11.2727C0 11.8752 0.488417 12.3636 1.09091 12.3636H14.9091C15.5116 12.3636 16 11.8752 16 11.2727V1.09091C16 0.488417 15.5116 0 14.9091 0ZM14.9091 10.5019L12.0218 7.61461C11.8069 7.41434 11.472 7.42025 11.2643 7.62797C11.0566 7.83569 11.0507 8.1706 11.2509 8.38552L14.1382 11.2728H1.86182L4.74909 8.38552C4.94935 8.1706 4.94345 7.83569 4.73573 7.62797C4.52801 7.42025 4.1931 7.41434 3.97818 7.61461L1.09091 10.5019V3.50188L7.63637 8.43642C7.83031 8.58188 8.09697 8.58188 8.29091 8.43642L14.9018 3.49824L14.9091 10.5019ZM14.9091 1.09082V2.13809L7.97455 7.31991L1.09091 2.13809V1.09082H14.9091Z" fill="#2F3644"/>
</svg>
