<svg width="11" height="18" viewBox="0 0 11 18" fill="none" xmlns="http://www.w3.org/2000/svg">
<path fill-rule="evenodd" clip-rule="evenodd" d="M10.6364 2.86364C10.6364 1.28209 9.35427 0 7.77273 0H2.86364C1.28209 0 0 1.28209 0 2.86364V15.1364C0 16.7179 1.28209 18 2.86364 18H7.77273C9.35427 18 10.6364 16.7179 10.6364 15.1364V2.86364ZM1.22727 3.68196H9.40909V13.5001H1.22727V3.68196ZM2.86364 1.22717H7.77273C8.51693 1.22959 9.16577 1.73387 9.35182 2.45445H1.28455C1.47059 1.73387 2.11944 1.22959 2.86364 1.22717ZM7.77273 16.7726H2.86364C1.9599 16.7726 1.22727 16.04 1.22727 15.1363V14.7272H9.40909V15.1363C9.40909 16.04 8.67647 16.7726 7.77273 16.7726Z" fill="#2F3644"/>
<path fill-rule="evenodd" clip-rule="evenodd" d="M5.11364 16.3635C5.45254 16.3635 5.72727 16.0888 5.72727 15.7499C5.72727 15.411 5.45254 15.1362 5.11364 15.1362C4.77473 15.1362 4.5 15.411 4.5 15.7499C4.5 16.0888 4.77473 16.3635 5.11364 16.3635Z" fill="#2F3644"/>
</svg>
