<svg width="80" height="80" viewBox="0 0 80 80" fill="none" xmlns="http://www.w3.org/2000/svg">
<path d="M40 40C42.0675 40 43.75 38.3175 43.75 36.25C43.75 34.1825 42.0675 32.5 40 32.5C37.9325 32.5 36.25 34.1825 36.25 36.25C36.25 38.3175 37.9325 40 40 40ZM40 35C40.6887 35 41.25 35.56 41.25 36.25C41.25 36.94 40.6887 37.5 40 37.5C39.3112 37.5 38.75 36.94 38.75 36.25C38.75 35.56 39.3112 35 40 35Z" fill="#00A5D7"/>
<path d="M70 58.75V45C70 42.9325 68.3175 41.25 66.25 41.25H65.7913C68.3637 39.2212 70.7062 36.8838 72.73 34.2525C73.3875 33.3963 73.75 32.3288 73.75 31.25C73.75 30.1712 73.3875 29.1038 72.7287 28.2475C67.315 21.2075 59.6688 16.1375 51.0988 13.86C51.2088 13.1962 51.2638 12.5187 51.2487 11.83C51.12 5.99625 46.0938 1.25 40.0438 1.25H39.5725C33.605 1.25 28.75 6.105 28.75 12.0712V13.75C28.75 13.8 28.7625 13.8475 28.765 13.8975C20.2525 16.1925 12.655 21.2487 7.27125 28.2475C6.6125 29.1038 6.25 30.1712 6.25 31.25C6.25 32.3288 6.6125 33.3963 7.27125 34.2525C9.295 36.8838 11.6375 39.2212 14.2087 41.25H13.75C11.6825 41.25 10 42.9325 10 45V58.75H1.25V78.75H21.25V58.75H12.5V45C12.5 44.31 13.0612 43.75 13.75 43.75H17.745C21.8725 46.345 26.4562 48.1862 31.25 49.1687V67.8587L37.0275 77.1037C37.6725 78.135 38.7837 78.75 40 78.75C41.2163 78.75 42.3275 78.135 42.9725 77.1037L48.75 67.8587V49.1687C53.5438 48.1862 58.1275 46.345 62.2562 43.75H66.25C66.9388 43.75 67.5 44.31 67.5 45V58.75H58.75V78.75H78.75V58.75H70ZM18.75 76.25H3.75V61.25H18.75V76.25ZM70.7462 29.77C71.0713 30.1925 71.25 30.7175 71.25 31.25C71.25 31.7825 71.0713 32.3075 70.7475 32.73C65.9238 39 59.215 43.5487 51.7588 45.835C56.0163 42.3937 58.75 37.1375 58.75 31.25C58.75 25.4925 56.1737 20.2025 51.755 16.6625C59.2637 18.9513 65.945 23.5275 70.7462 29.77ZM38.75 49.985C38.9175 49.9875 39.0837 50 39.2512 50H40.7475C40.915 50 41.0812 49.9875 41.2487 49.985V66.25H38.7487V49.985H38.75ZM31.58 17.3725C31.8762 17.4475 32.1812 17.5 32.5 17.5C34.5675 17.5 36.25 15.8175 36.25 13.75V12.07C36.25 10.2388 37.74 8.75 39.5713 8.75H40.43C41.4363 8.75 42.3775 9.20125 43.0125 9.9875C43.6562 10.7837 43.89 11.7863 43.67 12.8125C43.5425 13.4075 43.2012 13.995 42.6825 14.5138L39.68 17.5162C32.2475 17.6875 26.25 23.7762 26.25 31.25C26.25 38.8312 32.4188 45 40 45C47.5812 45 53.75 38.8312 53.75 31.25C53.75 26.7038 51.5137 22.5225 47.8337 19.9713L48.0825 19.7225C48.5913 19.2137 49.0387 18.6625 49.43 18.0788C53.7087 21.1313 56.25 25.9525 56.25 31.25C56.25 40.21 48.96 47.5 40 47.5C31.04 47.5 23.75 40.21 23.75 31.25C23.75 25.5788 26.74 20.3162 31.58 17.3725ZM43.75 30V24.0525L46.0213 21.7812C49.2575 23.84 51.25 27.3787 51.25 31.25C51.25 37.4538 46.2025 42.5 40 42.5C33.7975 42.5 28.75 37.4538 28.75 31.25C28.75 26.1975 32.0975 21.9137 36.6987 20.4988L36.25 20.9475V30H43.75ZM31.25 12.0712C31.25 7.4825 34.9825 3.75 39.5713 3.75H40.0425C44.745 3.75 48.6488 7.39875 48.7463 11.8837C48.7963 14.1775 47.9325 16.3337 46.3125 17.9538L41.25 23.0175V27.5H38.75V21.9825L44.45 16.2812C45.31 15.4212 45.8862 14.4025 46.115 13.335C46.49 11.5837 46.0675 9.79 44.9562 8.415C43.8438 7.04 42.1925 6.25 40.4287 6.25H39.57C36.3613 6.25 33.75 8.86125 33.75 12.07V13.75C33.75 14.44 33.1887 15 32.5 15C31.8113 15 31.25 14.44 31.25 13.75V12.0712ZM9.25375 32.73C8.92875 32.3075 8.75 31.7825 8.75 31.25C8.75 30.7175 8.92875 30.1925 9.2525 29.77C14.0525 23.53 20.7388 18.9538 28.2475 16.665C23.875 20.1938 21.25 25.5413 21.25 31.25C21.25 37.1375 23.9838 42.3937 28.2413 45.8337C20.7863 43.5487 14.0763 39 9.25375 32.73ZM36.25 49.8713V66.25H33.75V49.6C34.5788 49.7163 35.4125 49.8075 36.25 49.8713ZM40.8525 75.7775C40.4837 76.3688 39.5175 76.3688 39.1488 75.7775L34.755 68.75H36.25H43.75H45.245L40.8525 75.7775ZM46.25 66.25H43.75V49.8713C44.5875 49.8075 45.4212 49.7163 46.25 49.6V66.25ZM76.25 76.25H61.25V61.25H76.25V76.25Z" fill="#4C525E"/>
<path d="M17.1337 65.8837L15.3662 64.1162L8.74996 70.7325L7.13371 69.1162L5.36621 70.8837L8.74996 74.2675L17.1337 65.8837Z" fill="#00A5D7"/>
<path d="M64.6337 74.6337L68.75 70.5175L72.8662 74.6337L74.6337 72.8662L70.5175 68.75L74.6337 64.6337L72.8662 62.8662L68.75 66.9825L64.6337 62.8662L62.8662 64.6337L66.9825 68.75L62.8662 72.8662L64.6337 74.6337Z" fill="#00A5D7"/>
</svg>
