<svg width="80" height="80" viewBox="0 0 80 80" fill="none" xmlns="http://www.w3.org/2000/svg">
<path d="M27.5 60H10C9.66848 60 9.35054 60.1317 9.11612 60.3661C8.8817 60.6005 8.75 60.9185 8.75 61.25V65C8.75 65.3315 8.8817 65.6495 9.11612 65.8839C9.35054 66.1183 9.66848 66.25 10 66.25H27.5C27.8315 66.25 28.1495 66.1183 28.3839 65.8839C28.6183 65.6495 28.75 65.3315 28.75 65V61.25C28.75 60.9185 28.6183 60.6005 28.3839 60.3661C28.1495 60.1317 27.8315 60 27.5 60ZM26.25 63.75H11.25V62.5H26.25V63.75Z" fill="#4C525E"/>
<path d="M6.25 33.75H12.5C12.8315 33.75 13.1495 33.6183 13.3839 33.3839C13.6183 33.1495 13.75 32.8315 13.75 32.5C13.75 32.1685 13.6183 31.8505 13.3839 31.6161C13.1495 31.3817 12.8315 31.25 12.5 31.25H6.25C5.91848 31.25 5.60054 31.3817 5.36612 31.6161C5.1317 31.8505 5 32.1685 5 32.5C5 32.8315 5.1317 33.1495 5.36612 33.3839C5.60054 33.6183 5.91848 33.75 6.25 33.75Z" fill="#4C525E"/>
<path d="M10 36.25C10 35.9185 9.8683 35.6005 9.63388 35.3661C9.39946 35.1317 9.08152 35 8.75 35H6.25C5.91848 35 5.60054 35.1317 5.36612 35.3661C5.1317 35.6005 5 35.9185 5 36.25C5 36.5815 5.1317 36.8995 5.36612 37.1339C5.60054 37.3683 5.91848 37.5 6.25 37.5H8.75C9.08152 37.5 9.39946 37.3683 9.63388 37.1339C9.8683 36.8995 10 36.5815 10 36.25Z" fill="#4C525E"/>
<path d="M27.5 67.5H10C9.66848 67.5 9.35054 67.6317 9.11612 67.8661C8.8817 68.1005 8.75 68.4185 8.75 68.75C8.75 69.0815 8.8817 69.3995 9.11612 69.6339C9.35054 69.8683 9.66848 70 10 70H27.5C27.8315 70 28.1495 69.8683 28.3839 69.6339C28.6183 69.3995 28.75 69.0815 28.75 68.75C28.75 68.4185 28.6183 68.1005 28.3839 67.8661C28.1495 67.6317 27.8315 67.5 27.5 67.5Z" fill="#00A5D7"/>
<path d="M17.5 71.25H10C9.66848 71.25 9.35054 71.3817 9.11612 71.6161C8.8817 71.8505 8.75 72.1685 8.75 72.5C8.75 72.8315 8.8817 73.1495 9.11612 73.3839C9.35054 73.6183 9.66848 73.75 10 73.75H17.5C17.8315 73.75 18.1495 73.6183 18.3839 73.3839C18.6183 73.1495 18.75 72.8315 18.75 72.5C18.75 72.1685 18.6183 71.8505 18.3839 71.6161C18.1495 71.3817 17.8315 71.25 17.5 71.25Z" fill="#00A5D7"/>
<path d="M22.5 71.25H21.25C20.9185 71.25 20.6005 71.3817 20.3661 71.6161C20.1317 71.8505 20 72.1685 20 72.5C20 72.8315 20.1317 73.1495 20.3661 73.3839C20.6005 73.6183 20.9185 73.75 21.25 73.75H22.5C22.8315 73.75 23.1495 73.6183 23.3839 73.3839C23.6183 73.1495 23.75 72.8315 23.75 72.5C23.75 72.1685 23.6183 71.8505 23.3839 71.6161C23.1495 71.3817 22.8315 71.25 22.5 71.25Z" fill="#00A5D7"/>
<path d="M73.75 1.25H48.75C47.4244 1.25174 46.1537 1.77908 45.2164 2.71638C44.2791 3.65369 43.7517 4.92445 43.75 6.25H41.25C40.9185 6.25 40.6005 6.3817 40.3661 6.61612C40.1317 6.85054 40 7.16848 40 7.5V10H20C17.0174 10.0034 14.1579 11.1898 12.0488 13.2988C9.9398 15.4079 8.75343 18.2674 8.75 21.25V23.75H6.25C5.91848 23.75 5.60054 23.8817 5.36612 24.1161C5.1317 24.3505 5 24.6685 5 25V27.6578C3.92733 27.9364 2.97733 28.5628 2.29875 29.439C1.62018 30.3152 1.25134 31.3918 1.25 32.5V73.75C1.25149 75.0756 1.77875 76.3465 2.71611 77.2839C3.65347 78.2212 4.92437 78.7485 6.25 78.75H31.25C32.5756 78.7483 33.8463 78.2209 34.7836 77.2836C35.7209 76.3463 36.2483 75.0755 36.25 73.75H38.75C39.0815 73.75 39.3995 73.6183 39.6339 73.3839C39.8683 73.1495 40 72.8315 40 72.5V70H60C62.9826 69.9966 65.8421 68.8102 67.9512 66.7012C70.0602 64.5921 71.2466 61.7326 71.25 58.75V56.25H73.75C74.0815 56.25 74.3995 56.1183 74.6339 55.8839C74.8683 55.6495 75 55.3315 75 55V52.3422C76.0727 52.0636 77.0227 51.4372 77.7012 50.561C78.3798 49.6848 78.7487 48.6082 78.75 47.5V6.25C78.7483 4.92445 78.2209 3.65369 77.2836 2.71638C76.3463 1.77908 75.0755 1.25174 73.75 1.25ZM42.5 8.75H43.75V13.75H42.5V8.75ZM7.5 26.25H12.5V27.5H7.5V26.25ZM33.75 73.75C33.7491 74.4128 33.4855 75.0482 33.0168 75.5168C32.5482 75.9855 31.9128 76.2491 31.25 76.25H6.25C5.58723 76.2491 4.95184 75.9855 4.48319 75.5168C4.01454 75.0482 3.75087 74.4128 3.75 73.75V32.5C3.75087 31.8372 4.01454 31.2018 4.48319 30.7332C4.95184 30.2645 5.58723 30.0009 6.25 30H31.25C31.9128 30.0009 32.5482 30.2645 33.0168 30.7332C33.4855 31.2018 33.7491 31.8372 33.75 32.5V73.75ZM37.5 71.25H36.25V66.25H37.5V71.25ZM68.75 58.75C68.7474 61.0699 67.8247 63.294 66.1844 64.9344C64.544 66.5747 62.3199 67.4974 60 67.5H40V65C40 64.6685 39.8683 64.3505 39.6339 64.1161C39.3995 63.8817 39.0815 63.75 38.75 63.75H36.25V32.5C36.2483 31.1744 35.7209 29.9037 34.7836 28.9664C33.8463 28.0291 32.5756 27.5017 31.25 27.5H15V25C15 24.6685 14.8683 24.3505 14.6339 24.1161C14.3995 23.8817 14.0815 23.75 13.75 23.75H11.25V21.25C11.2526 18.9301 12.1753 16.706 13.8156 15.0656C15.456 13.4253 17.6801 12.5026 20 12.5H40V15C40 15.3315 40.1317 15.6495 40.3661 15.8839C40.6005 16.1183 40.9185 16.25 41.25 16.25H43.75V47.5C43.7517 48.8256 44.2791 50.0963 45.2164 51.0336C46.1537 51.9709 47.4244 52.4983 48.75 52.5H65V55C65 55.3315 65.1317 55.6495 65.3661 55.8839C65.6005 56.1183 65.9185 56.25 66.25 56.25H68.75V58.75ZM72.5 53.75H67.5V52.5H72.5V53.75ZM76.25 47.5C76.2491 48.1628 75.9855 48.7982 75.5168 49.2668C75.0482 49.7355 74.4128 49.9991 73.75 50H48.75C48.0872 49.9991 47.4518 49.7355 46.9832 49.2668C46.5145 48.7982 46.2509 48.1628 46.25 47.5V6.25C46.2509 5.58723 46.5145 4.95184 46.9832 4.48319C47.4518 4.01454 48.0872 3.75087 48.75 3.75H73.75C74.4128 3.75087 75.0482 4.01454 75.5168 4.48319C75.9855 4.95184 76.2491 5.58723 76.25 6.25V47.5Z" fill="#4C525E"/>
<path d="M18.75 36.25C16.5249 36.25 14.3499 36.9098 12.4998 38.146C10.6498 39.3821 9.20782 41.1391 8.35633 43.1948C7.50484 45.2505 7.28206 47.5125 7.71614 49.6948C8.15022 51.8771 9.22168 53.8816 10.795 55.455C12.3684 57.0283 14.3729 58.0998 16.5552 58.5338C18.7375 58.9679 20.9995 58.7451 23.0552 57.8936C25.1108 57.0422 26.8678 55.6002 28.104 53.7502C29.3402 51.9001 30 49.725 30 47.5C29.9965 44.5174 28.8102 41.6579 26.7011 39.5488C24.5921 37.4398 21.7326 36.2534 18.75 36.25ZM18.75 38.75C20.6389 38.7481 22.4773 39.3607 23.9875 40.4953L18.2328 46.25H10.0906C10.3938 44.1688 11.4354 42.2661 13.0251 40.8892C14.6149 39.5123 16.6468 38.753 18.75 38.75ZM18.75 56.25C16.6468 56.247 14.6149 55.4877 13.0251 54.1108C11.4354 52.7339 10.3938 50.8312 10.0906 48.75H17.8672L20.4609 56.0813C19.8975 56.1931 19.3244 56.2496 18.75 56.25ZM22.8172 55.2437L20.1922 47.8266L25.7547 42.2625C26.5136 43.2754 27.0434 44.4411 27.3076 45.6789C27.5717 46.9168 27.5638 48.1972 27.2845 49.4317C27.0051 50.6661 26.461 51.8252 25.6897 52.8287C24.9183 53.8322 23.9382 54.6562 22.8172 55.2437Z" fill="#00A5D7"/>
<path d="M70 33.75H52.5C52.1685 33.75 51.8505 33.8817 51.6161 34.1161C51.3817 34.3505 51.25 34.6685 51.25 35V38.75C51.25 39.0815 51.3817 39.3995 51.6161 39.6339C51.8505 39.8683 52.1685 40 52.5 40H70C70.3315 40 70.6495 39.8683 70.8839 39.6339C71.1183 39.3995 71.25 39.0815 71.25 38.75V35C71.25 34.6685 71.1183 34.3505 70.8839 34.1161C70.6495 33.8817 70.3315 33.75 70 33.75ZM68.75 37.5H53.75V36.25H68.75V37.5Z" fill="#4C525E"/>
<path d="M48.75 7.5H55C55.3315 7.5 55.6495 7.3683 55.8839 7.13388C56.1183 6.89946 56.25 6.58152 56.25 6.25C56.25 5.91848 56.1183 5.60054 55.8839 5.36612C55.6495 5.1317 55.3315 5 55 5H48.75C48.4185 5 48.1005 5.1317 47.8661 5.36612C47.6317 5.60054 47.5 5.91848 47.5 6.25C47.5 6.58152 47.6317 6.89946 47.8661 7.13388C48.1005 7.3683 48.4185 7.5 48.75 7.5Z" fill="#4C525E"/>
<path d="M48.75 11.25H51.25C51.5815 11.25 51.8995 11.1183 52.1339 10.8839C52.3683 10.6495 52.5 10.3315 52.5 10C52.5 9.66848 52.3683 9.35054 52.1339 9.11612C51.8995 8.8817 51.5815 8.75 51.25 8.75H48.75C48.4185 8.75 48.1005 8.8817 47.8661 9.11612C47.6317 9.35054 47.5 9.66848 47.5 10C47.5 10.3315 47.6317 10.6495 47.8661 10.8839C48.1005 11.1183 48.4185 11.25 48.75 11.25Z" fill="#4C525E"/>
<path d="M70 41.25H52.5C52.1685 41.25 51.8505 41.3817 51.6161 41.6161C51.3817 41.8505 51.25 42.1685 51.25 42.5C51.25 42.8315 51.3817 43.1495 51.6161 43.3839C51.8505 43.6183 52.1685 43.75 52.5 43.75H70C70.3315 43.75 70.6495 43.6183 70.8839 43.3839C71.1183 43.1495 71.25 42.8315 71.25 42.5C71.25 42.1685 71.1183 41.8505 70.8839 41.6161C70.6495 41.3817 70.3315 41.25 70 41.25Z" fill="#4C525E"/>
<path d="M60 45H52.5C52.1685 45 51.8505 45.1317 51.6161 45.3661C51.3817 45.6005 51.25 45.9185 51.25 46.25C51.25 46.5815 51.3817 46.8995 51.6161 47.1339C51.8505 47.3683 52.1685 47.5 52.5 47.5H60C60.3315 47.5 60.6495 47.3683 60.8839 47.1339C61.1183 46.8995 61.25 46.5815 61.25 46.25C61.25 45.9185 61.1183 45.6005 60.8839 45.3661C60.6495 45.1317 60.3315 45 60 45Z" fill="#4C525E"/>
<path d="M65 45H63.75C63.4185 45 63.1005 45.1317 62.8661 45.3661C62.6317 45.6005 62.5 45.9185 62.5 46.25C62.5 46.5815 62.6317 46.8995 62.8661 47.1339C63.1005 47.3683 63.4185 47.5 63.75 47.5H65C65.3315 47.5 65.6495 47.3683 65.8839 47.1339C66.1183 46.8995 66.25 46.5815 66.25 46.25C66.25 45.9185 66.1183 45.6005 65.8839 45.3661C65.6495 45.1317 65.3315 45 65 45Z" fill="#4C525E"/>
<path d="M73.75 30H72.5V15C72.5 14.6685 72.3683 14.3505 72.1339 14.1161C71.8995 13.8817 71.5815 13.75 71.25 13.75H67.5C67.1685 13.75 66.8505 13.8817 66.6161 14.1161C66.3817 14.3505 66.25 14.6685 66.25 15V30H65V20C65 19.6685 64.8683 19.3505 64.6339 19.1161C64.3995 18.8817 64.0815 18.75 63.75 18.75H60C59.6685 18.75 59.3505 18.8817 59.1161 19.1161C58.8817 19.3505 58.75 19.6685 58.75 20V30H57.5V15C57.5 14.6685 57.3683 14.3505 57.1339 14.1161C56.8995 13.8817 56.5815 13.75 56.25 13.75H52.5C52.1685 13.75 51.8505 13.8817 51.6161 14.1161C51.3817 14.3505 51.25 14.6685 51.25 15V30H48.75C48.4185 30 48.1005 30.1317 47.8661 30.3661C47.6317 30.6005 47.5 30.9185 47.5 31.25C47.5 31.5815 47.6317 31.8995 47.8661 32.1339C48.1005 32.3683 48.4185 32.5 48.75 32.5H73.75C74.0815 32.5 74.3995 32.3683 74.6339 32.1339C74.8683 31.8995 75 31.5815 75 31.25C75 30.9185 74.8683 30.6005 74.6339 30.3661C74.3995 30.1317 74.0815 30 73.75 30ZM55 30H53.75V16.25H55V30ZM62.5 30H61.25V21.25H62.5V30ZM70 30H68.75V16.25H70V30Z" fill="#00A5D7"/>
</svg>
