<svg width="18" height="17" viewBox="0 0 18 17" fill="none" xmlns="http://www.w3.org/2000/svg">
<path fill-rule="evenodd" clip-rule="evenodd" d="M8.99999 10.5366C11.419 10.5366 13.3902 8.17463 13.3902 5.26829C13.3902 2.36195 11.419 0 8.99999 0C6.58096 0 4.60974 2.36195 4.60974 5.26829C4.60974 8.17463 6.58535 10.5366 8.99999 10.5366ZM8.99998 1.31706C10.699 1.31706 12.0732 3.07316 12.0732 5.26828C12.0732 7.4634 10.699 9.2195 8.99998 9.2195C7.30096 9.2195 5.92681 7.4634 5.92681 5.26828C5.92681 3.07316 7.30096 1.31706 8.99998 1.31706Z" fill="#2F3644"/>
<path fill-rule="evenodd" clip-rule="evenodd" d="M13.0171 10.0976C12.6534 10.0612 12.3291 10.3266 12.2927 10.6903C12.2563 11.054 12.5217 11.3783 12.8854 11.4146C14.9277 11.6546 16.51 13.3144 16.6522 15.3659H1.3478C1.50343 13.3203 3.07887 11.6678 5.11463 11.4146C5.47833 11.3783 5.74369 11.054 5.70732 10.6903C5.67095 10.3266 5.34663 10.0612 4.98293 10.0976C4.93463 10.0976 0 10.6595 0 16.02C0 16.3837 0.294837 16.6785 0.658537 16.6785H17.3415C17.7052 16.6785 18 16.3837 18 16.02C18 10.6595 13.0654 10.0976 13.0171 10.0976Z" fill="#2F3644"/>
</svg>
