<svg width="80" height="80" viewBox="0 0 80 80" fill="none" xmlns="http://www.w3.org/2000/svg">
<g clip-path="url(#clip0)">
<path d="M80 46.4517V19.3549H70.5834L34.8387 42.7729V34.232L74.9767 7.08107L72.3482 13.7185L74.7474 14.6686L79.5357 2.58069H65.8064V5.16133H73.2088L34.8387 31.1177V12.9033H33.5484C15.0504 12.9033 0 27.9537 0 46.4517C0 64.9496 15.0504 80 33.5484 80C37.6953 80 41.7238 79.2516 45.5481 77.7848C46.1719 79.0903 47.4931 80 49.0323 80H72.2581C74.392 80 76.129 78.263 76.129 76.1291V65.8065C76.129 63.6726 74.392 61.9355 72.2581 61.9355H63.3146C65.7938 57.1743 67.0968 51.8669 67.0968 46.4517H80ZM77.4193 43.871H72.2581V21.9355H77.4193V43.871ZM49.0323 43.871V36.5588L54.1935 33.1767V43.871H49.0323ZM37.8724 43.871L46.4516 38.2504V43.871H37.8724ZM32.2581 15.511V43.871H2.69531C3.97681 28.4231 16.64 16.1536 32.2581 15.511ZM73.5484 65.8065V76.1291C73.5484 76.8398 72.9688 77.4194 72.2581 77.4194H49.0323C48.3216 77.4194 47.7419 76.8398 47.7419 76.1291V65.8065C47.7419 65.0958 48.3216 64.5162 49.0323 64.5162H52.9032V60.4764L58.9636 64.5162H72.2581C72.9688 64.5162 73.5484 65.0958 73.5484 65.8065ZM60.3547 61.9355H59.7461L50.3226 55.6528V61.9355H49.0323C46.8983 61.9355 45.1613 63.6726 45.1613 65.8065V75.1576C41.4749 76.6526 37.5731 77.4194 33.5484 77.4194C16.4737 77.4194 2.58065 63.5264 2.58065 46.4517H61.9355V43.871H56.7742V31.4863L61.9355 28.1043V41.2904H64.5161V26.4145L69.6774 23.0324V43.871H64.4311L64.4853 45.213C64.5004 45.6232 64.5161 46.0365 64.5161 46.4517C64.5161 51.911 63.0696 57.2436 60.3547 61.9355Z" fill="#4C525E"/>
<path d="M3.87097 19.3548C6.00491 19.3548 7.74194 17.6178 7.74194 15.4839C7.74194 14.8078 7.55229 14.1822 7.24672 13.6284L12.7369 7.45275C13.1874 7.63609 13.6775 7.74194 14.1935 7.74194C15.4297 7.74194 16.5203 7.14844 17.2297 6.2437L21.943 7.81565C21.9821 9.91494 23.6971 11.6129 25.8065 11.6129C27.9404 11.6129 29.6774 9.87588 29.6774 7.74194C29.6774 7.14592 29.5319 6.58833 29.2893 6.08367L32.7923 2.58065H52.9032V0H31.7238L27.4647 4.25907C26.9601 4.01651 26.4025 3.87097 25.8065 3.87097C24.5703 3.87097 23.4785 4.46447 22.7703 5.37046L18.057 3.79851C18.0179 1.69796 16.3029 0 14.1935 0C12.0596 0 10.3226 1.73702 10.3226 3.87097C10.3226 4.547 10.5122 5.17263 10.8178 5.72644L5.32762 11.9021C4.87714 11.7188 4.38697 11.6129 3.87097 11.6129C1.73702 11.6129 0 13.3499 0 15.4839C0 17.6178 1.73702 19.3548 3.87097 19.3548ZM25.8065 6.45161C26.5171 6.45161 27.0968 7.03125 27.0968 7.74194C27.0968 8.45262 26.5171 9.03226 25.8065 9.03226C25.0958 9.03226 24.5161 8.45262 24.5161 7.74194C24.5161 7.03125 25.0958 6.45161 25.8065 6.45161ZM14.1935 2.58065C14.9042 2.58065 15.4839 3.16028 15.4839 3.87097C15.4839 4.58165 14.9042 5.16129 14.1935 5.16129C13.4829 5.16129 12.9032 4.58165 12.9032 3.87097C12.9032 3.16028 13.4829 2.58065 14.1935 2.58065ZM3.87097 14.1935C4.58165 14.1935 5.16129 14.7732 5.16129 15.4839C5.16129 16.1946 4.58165 16.7742 3.87097 16.7742C3.16028 16.7742 2.58065 16.1946 2.58065 15.4839C2.58065 14.7732 3.16028 14.1935 3.87097 14.1935Z" fill="#00A5D7"/>
<path d="M36.129 5.16125H47.7419V7.7419H36.129V5.16125Z" fill="#00A5D7"/>
<path d="M50.3226 5.16125H52.9032V7.7419H50.3226V5.16125Z" fill="#00A5D7"/>
<path d="M50.3226 72.2581H65.8064V74.8387H50.3226V72.2581Z" fill="#00A5D7"/>
<path d="M68.3871 72.2581H70.9677V74.8387H68.3871V72.2581Z" fill="#00A5D7"/>
<path d="M50.3226 67.0968H70.9677V69.6775H50.3226V67.0968Z" fill="#00A5D7"/>
</g>
<defs>
<clipPath id="clip0">
<rect width="80" height="80" fill="white"/>
</clipPath>
</defs>
</svg>
